<mxfile host="Electron" agent="Mozilla/5.0 (Windows NT 10.0; Win64; x64) AppleWebKit/537.36 (KHTML, like Gecko) draw.io/28.0.6 Chrome/138.0.7204.100 Electron/37.2.3 Safari/537.36" version="28.0.6">
  <diagram name="Page-1" id="BMWy-T6XzseeYuQivcbL">
    <mxGraphModel dx="1025" dy="482" grid="1" gridSize="10" guides="1" tooltips="1" connect="1" arrows="1" fold="1" page="1" pageScale="1" pageWidth="827" pageHeight="1169" math="0" shadow="0">
      <root>
        <mxCell id="0" />
        <mxCell id="1" parent="0" />
        <mxCell id="QjeNA2YwnsSd0T1r7HZM-2" value="" style="rounded=0;whiteSpace=wrap;html=1;movable=1;resizable=1;rotatable=1;deletable=1;editable=1;locked=0;connectable=1;" vertex="1" parent="1">
          <mxGeometry x="10" y="110" width="760" height="370" as="geometry" />
        </mxCell>
        <mxCell id="QjeNA2YwnsSd0T1r7HZM-5" value="" style="shape=image;aspect=fixed;image=data:image/png,iVBORw0KGgoAAAANSUhEUgAAAzwAAAINCAYAAAD7p3pSAAAAAXNSR0IArs4c6QAAAARnQU1BAACxjwv8YQUAAAAJcEhZcwAADsMAAA7DAcdvqGQAAI7oSURBVHhe7d13eJTV1jbwe2bSCyEJoYYSSkKvIj2EroKKoKLYUFTsvTc8KqIoeFCxYUVFD6I0UVCQ3hMgCS0JkAAJhBTCpGfq98cLfrikpMxTZub+Xdd7Xa/3Gj0aIHnWs/de21BRUeEEERERERGRBzLKgIiIiIiIyFOw4SEiIiIiIo/FhoeIiIiIiDwWGx4iIiIiIvJYbHiIiIiIiMhjseEhIiIiIiKPxYaHiIiIiIg8FhseIiIiIiLyWGx4iIiIiIjIY7HhISIiIiIij8WGh4iIiIiIPBYbHiIiIiIi8lhseIiIiIiIyGOx4SEiIiIiIo/FhoeIiIiIiDwWGx4iIiIiIvJYbHiIiIiIiMhjseEhIiIiIiKPxYaHiIiIiIg8FhseIiIiIiLyWGx4iIiIiIjIY7HhISIiIiIij2WoqKhwypCIyB05HA7YbDbYbDZYrVaYzWacPn0ap0+fRnFxMcxmM4qKilBRUYHy8nKUl5fDYrGgqqoKVqv177/X4XDA6fy/b40GgwFGoxEmkwk+Pj7w9fWFv78//P39ERgYiKCgIAQFBaF+/fqoX78+6tWr9/f/HxYWBl9fX/j4+MDHxwdGI98xERERqY0NDxG5DYvFgtLSUpw+fRo5OTnIycnBsWPHcOLECZw4cQK5ubk4derU3w1OZWWl/EeoKiAgAKGhoQgPD0d4eDiaNGmCxo0bo0mTJmjRogWaNWuGZs2aoX79+ggJCYGfn5/8RxAREVEdseEhIt0xm83Izc3F4cOHcejQIaSnpyMzMxPHjh1DQUEBzGYzbDab/Nvcko+PD8LCwtCgQQM0b94cMTExiI2NRZs2bdC6dWs0btwYYWFh8m8jIiKiamLDQ0SasdvtyM7ORlpaGvbu3YvU1FTs378f2dnZKC4uhsVikX+LV/Hz80O9evXQvHlzdOjQAV27dkXHjh0RFxeH6OhobpEjIiKqBjY8RKQKp9OJ/Px8JCUlISkpCTt37kRKSgoKCwtRVVX195kZujiDwQB/f380aNAA3bp1Q8+ePdGrVy/06tULDRo0kB8nIiLyemx4iMjlnE4nysvLcfjwYWzZsgVbt27Ftm3bkJmZycZGIUajEa1bt0afPn3Qr18/9O3bFzExMQgKCpIfJSIi8ipseIjIJUpLS5GRkYENGzZgw4YNSExMRG5urvwYqcRgMKBp06bo1asX4uPjMWjQILRp0wbBwcHyo0RERB6NDQ8R1Yrdbsfhw4exceNGrFq1Cjt27EBOTg4cDof8KOmAyWRCdHQ0+vTpg2HDhmHgwIFo1aoVzwEREZHHY8NDRNVWXl6Obdu2YeXKlVi9ejUOHjyo+ehnqp2goCC0a9cOI0aMwMiRI3H55ZfD399ffoyIiMjtseEhoosym834888/sXTpUvz1118oKiriKo6HMRqNiIqKwogRIzBmzBgMGzYMISEh8mNERERuiQ0PEf3D2WlqK1aswOLFi7FmzRqu4niZ4OBgDBs2DOPGjcOIESMQHh4Og8EgP0ZEROQW2PAQEQAgPz8ff/75J37++WesW7cOZWVl8iPkhcLCwjBkyBDccMMNSEhIQEREhPwIERGRrrHhIfJipaWlWLduHX788UesXr0aRUVF8iNEf4uKisKoUaNw8803o1+/fggMDJQfISIi0h02PEReaPfu3Zg/fz4WL16M7Oxs3o1DNWI0GhETE4Px48fj5ptvRvv27eVHiIiIdIMND5GXKC4uxsKFC/HVV19h9+7dsNls8iNENebn54c+ffrgrrvuwjXXXMOLTomISHfY8BB5MLvdjtTUVHzxxRdYsGABiouL5UeIXCYyMhK33HILJk2ahLi4ON7xQ0REusCGh8gDlZSUYMWKFfj000+xZcsWjpEmVfn4+GDo0KG45557MGzYMJ71ISIiTbHhIfIgx48fx7x58/DNN98gKytLlolUZTAY0L59e9x111246aab0KBBA/kRIiIixbHhIfIA+/fvx0cffYSffvoJZrNZlok016BBA9x2222YMmUKWrZsKctERESKYcND5KacTieSkpLw7rvvYsWKFaiqqpIfIdKdoKAgjBs3Do8//jg6dOjAC02JiEhxbHiI3IzNZsOGDRswY8YMrFu3jiOlyS2ZTCaMHj0azzzzDHr06MEBB0REpBg2PERuwmq14q+//sK7776LTZs2sdEhj2AymXDFFVfgySefRJ8+fdj4EBGRy7HhIdI5h8OBP//8E++++y42b97MiWvkkXx9fTFixAg8/fTT6NOnD7e6ERGRy7DhIdKxjRs34o033sDGjRtht9tlmcjj+Pn5YdSoUXjppZfQtWtXWSYiIqoxNjxEOpSSkoLXXnsNK1euhM1mk2Uij+fv74/x48fjpZdeQkxMjCwTERFVGxseIh05cuQIpk2bhh9++IGNDhGAgIAA3HvvvXjqqacQFRUly0RERJfEhodIB06dOoUPP/wQc+bMQXFxsSwTeb2oqCg888wzmDRpEkJCQmSZiIjogtjwEGnIYrHgxx9/xLRp03D06FFZJiKhU6dOmDp1KkaPHs2JbkREVC1seIg0sm3bNjzzzDPYsWMHR0wT1YDJZMLw4cPx1ltvoX379rJMRET0D2x4iFSWl5eHqVOn4vvvv4fVapVlIqqmgIAAPPTQQ3jmmWcQGhoqy0RERAAbHiL1VFVV4bvvvsPUqVNRWFgoy0RUSy1btsTbb7+NMWPGwGQyyTIREXk5NjxEKti9ezeefvppbNy4UZaIyAUMBgPGjBmDt99+m2OsiYjoH9jwECmopKQEM2fOxAcffIDy8nJZJiIXCw8Px4svvoi7774b/v7+skxERF6IDQ+RQjZs2IAnnngCe/bskSUiUpDBYMCAAQPw3nvvoXPnzrJMRERehjM9iVysrKwMTz31FEaPHs1mh0gDTqcTGzduREJCAmbMmMHhIEREXo4rPEQu4nQ6sXnzZtx///3IyMiQZSLSSO/evfHxxx+jU6dOskRERF6AKzxELlBSUoJXXnkFo0ePZrNDpDM7duzA0KFD8eGHH8JiscgyERF5OK7wENVRcnIyHnjgAezcuVOWiEhHDAYDhg8fjvfffx+tWrWSZSIi8lBc4SGqJYfDgY8++gjDhw9ns0PkBpxOJ/7880/Ex8fjl19+kWUiIvJQXOEhqoW8vDw88MAD+O233+B08o8QkbsxmUyYNGkSpk+fjtDQUFkmIiIPwoaHqAacTifWrFmDKVOmIDs7W5aJyM107twZX3zxBbp27SpLRETkIbiljaiaLBYL3nrrLYwbN47NDpGH2LNnD0aMGIGvvvoKDodDlomIyANwhYeoGnJzc/Hggw/it99+kyUi8gBGoxG33347ZsyYwS1uREQehg0P0SVs3boVkydPxuHDh2WJiDxMz5498fXXX6Ndu3ayREREbopb2oguwOFw4IsvvsCYMWPY7BB5iZ07d2LIkCFYvny5LBERkZtiw0N0HpWVlXj00Ufx0EMPoaysTJaJyIMVFhbipptuwltvvQWr1SrLRETkZriljUjIycnBnXfeiQ0bNsgSEXmZG2+8Ee+//z7CwsJkiYiI3AQbHqJzJCYmYtKkSTh06JAsEZGXuuyyyzBv3jzExMTIEhERuQFuaSM6Y+nSpbj66qvZ7BDRPyQmJmLkyJHYsmWLLBERkRtgw0Nez+Fw4L333sMtt9yC06dPyzIREbKzs3HNNdfg559/htPJjRFERO6EDQ95NYvFgqeeegovvPACbDabLBMR/a20tBS33347Zs6cCbvdLstERKRTPMNDXuv06dO49957sWzZMlkiIrogg8GA+++/H2+++Sb8/f1lmYiIdIYND3ml3Nxc3HLLLdi8ebMsERFdksFgwLXXXotPPvmEE9yIiHSODQ95nczMTNxwww3Yu3evLBER1cigQYPwww8/IDIyUpaIiEgn2PCQV0lNTcU111yD3NxcWSIiqpUuXbpgyZIlaNKkiSwREZEOcGgBeY3NmzfjqquuYrNDRC6VmpqKESNGID09XZaIiEgH2PCQV1i1ahWuv/56FBQUyBIRUZ0dOnQIo0ePxu7du2WJiIg0xoaHPN7vv/+OW2+9FUVFRbJEROQy2dnZuO6667B9+3ZZIiIiDbHhIY+2bNky3HbbbTCbzbJERORyubm5GD9+PLZu3SpLRESkETY85LGWLFmCW2+9FWVlZbJERKSYgoICjB07Flu2bJElIiLSABse8kg///wz7rjjDlgsFlkiIlKc2WzGuHHjsHHjRlkiIiKVseEhj/PLL7/g3nvvRVVVlSwREanm9OnTuOmmm9j0EBFpjA0PeZRff/0VU6ZMQXl5uSwREamusLAQN998M8/0EBFpiBePksdYvXo1brrpJpSWlsoSEZGmoqKisHTpUnTv3l2WiIhIYWx4yCNs3rwZ1157LZsdItKtqKgo/PHHH2jfvr0sERGRgriljdxeYmIibrjhBjY7RKRr+fn5GDt2LI4cOSJLRESkIDY85Nb27duHCRMm4NSpU7JERKQ7R44cwY033ogTJ07IEhERKYQND7mtnJwcTJw4EcePH5clIiLdSklJwS233IKioiJZIiIiBbDhIbd0+vRpTJgwAWlpabJERKR7W7ZswV133cXx+UREKmDDQ26nqqoKN998M5KSkmSJiMhtrFixAo8++igcDocsERGRC7HhIbdis9nw2GOPYe3atbJEROR2vvnmG7z++utwOjkwlYhIKWx4yG04nU5Mnz4d8+bNkyUiIrf1zjvv4JtvvpExERG5CO/hIbcxf/583HfffbBarbJEROTWQkJCMH/+fIwYMUKWiIiojtjwkFvYsGEDxo8fj5KSElkiIvIIUVFR+PPPPxEXFydLRERUB2x4SPeOHDmChIQE5ObmyhIRkUfp0KED/vjjDzRo0ECWiIiolniGh3StpKQEEyZMYLNDRF5h//79uPvuu7l1l4jIhdjwkG7ZbDY88sgjSE5OliUiIo+1cuVKvPzyy5zcRkTkImx4SLdmz56N//3vfzImIvJ4c+bMwY8//ihjIiKqBZ7hIV1auXIlbr75ZlRUVMgSEZFXCAsLw4oVK9C9e3dZIiKiGmDDQ7qTmZmJYcOG4cSJE7JERORVYmNjsWrVKkRFRckSERFVE7e0ka6Ul5dj8uTJbHaIiACkp6fjkUcegcVikSUiIqomNjykK6+88gq2bNkiYyIir7V48WLMmTNHxkREVE3c0ka6sWjRItx2222w2+2yRETk1fz8/PD777+jf//+skRERJfAhod04fDhw0hISEB+fr4sERERgFatWmHjxo2IjIyUJSIiughuaSPNVVRUYMqUKWx2iIguIisrCw888ABsNpssERHRRbDhIU05nU7MmDEDGzdulCUiIhJ+/fVXzJ07V8ZERHQR3NJGmlq3bh3Gjh2LyspKWSIiovMICwvDypUr0a1bN1kiIqLzYMNDmikqKsKgQYNw6NAhWSIioovo1asXVq5cieDgYFkiIiKBW9pIM8899xybHSKiWkhKSsJbb70lYyIiOg+u8JAmlixZgptvvhlOJ3/7ERHVhslkwooVKzBw4EBZIiKic7DhIdXl5uaif//+OHHihCwREVENxMbGYv369QgLC5MlIiI6g1vaSFV2ux3PPvssmx0iIhdIT0/Hf/7zH66WExFdBBseUtXixYvx888/y5iIiGrpyy+/xJo1a2RMRERncEsbqSY/Px8DBgzAsWPHZImIiOqgQ4cOWLNmDbe2ERGdB1d4SBUOhwOvvPIKmx0iIgXs378fb731Fre2ERGdB1d4SBWrVq3CddddB5vNJktEROQC/v7+WL16NXr16iVLRERejQ0PKa68vBz9+/dHWlqaLBERkQv16tULa9asga+vrywREXktbmkjxc2aNYvNDhGRCpKSkjB37lwZExF5Na7wkKIOHDiAQYMGobS0VJaIiEgBERER2LZtG6Kjo2WJiMgrcYWHFGOz2fDCCy+w2SEiUtGpU6fw4osvcoABEdEZbHhIMb/++iv++OMPGRMRkcIWLVqE1atXy5iIyCtxSxspwmw2Y/DgwTy7Q0SkkR49emDVqlUICgqSJSIir8KGhxQxY8YMTJ06VcZERKQSg8GAmTNn4v7775clt+d0OlFUVIS8vDycPHkSubm5yM/PR1FREQoKCmA2m1FeXo7y8nJUVVXBarXCbrcDZ74uPj4+8Pf3R0BAAIKCghAaGoqIiAhERkYiMjISUVFRaNq0KaKiohAVFQV/f3/5r0BEboQND7lcdnY2LrvsMpjNZlkiIiIVNWzYEElJSWjQoIEsuQWHw4GcnBzs3bsX+/fvR1paGjIyMnDkyBGcPn0aVqsVVqtVkfNKJpMJvr6+CAgIQHR0NGJiYhAXF4fY2Fh07twZcXFxXD0jchNseMjl7rnnHnz33XcyJiIiDTzwwAOYOXOmjHXHarWioKAASUlJ2L59O5KSkpCcnIzCwkL5UV3w9fVFbGwsevbsiV69eqFv375o27YtgoKCYDAY5MeJSENseMildu/ejfj4eFitVlkiIiIN+Pv7Y9u2bYiLi5MlTdntduTm5mLbtm1Ys2YNtm7divT0dFgsFvlRt9GwYUP07NkTgwYNQkJCAuLi4hAcHCw/RkQqY8NDLmO32zF27FisWrVKloiISENjx47F/PnzNV95sFgs2LNnD1asWIE///wTe/bs8dirC4xGI5o3b46BAwfiyiuvxMCBA9GoUSP5MSJSARsecpk//vgD48ePh81mkyUiItKQr68vli9fjkGDBsmS4mw2GxITE7F48WL89ttvyMzM9MqfE2FhYejXrx+uu+46XHnllYiKipIfISKFsOEhl7BYLBgxYgS2b98uS0REpAPx8fFYvnw5fHx8ZEkRhw4dwvfff4+ffvoJmZmZf09JIyA0NBRDhgzBLbfcglGjRnEKHJHC2PCQSyxcuBC33367IpNyiIio7kwmE3788UeMGTNGllymuLgYy5cvx1dffYWNGzfyZ0I1REVFYeLEibjjjjsQGxsLk8kkP0JEdcSGh+qsrKwMCQkJ2LNnjywREZGOXHbZZVi1apVLVxScTicOHz6ML774Aj/88ANyc3PlR6gafHx8kJCQgHvvvRfDhg3jyGsiF2LDQ3X27bff4t5775UxERHpjMFgwLfffovx48fLUo05HA5s374dc+bMwW+//Yby8nL5Eaql9u3bY8qUKbj55psRFhYmy0RUQ2x4qE4qKirQp08fZGRkyBIREelQ165dsX79+jqt8vz111+YNWsW1q9fz2sIFNSsWTPce++9uPvuuxERESHLRFRNRhkQ1cSCBQvY7BARuZGUlBQsWbJExpfkdDqxfv16jBw5Etdccw1Wr17NZkdhOTk5mDp1Krp164bp06ejpKREfoSIqoErPFRrFosFPXv2xKFDh2SJiIh0rEOHDtixY0e1Dsg7HA4kJSXhtddew+rVqzmIQENRUVF45plnMGnSJISEhMgyEV0AV3io1n766Sc2O0REbmj//v3VWuXJzMzE5MmTMWzYMKxatYrNjsby8/Px9NNPY8CAAVi4cCFX2IiqiSs8VCsWiwWDBg1CSkqKLBERkRvo2bMn1q1bd957eYqLi/H+++/jww8/hNlslmXSAYPBgMGDB+PNN99Ejx49ZJmIzsEVHqqVlStXcgw1EZEb2717N/74449/ZE6nE7/++isGDRqEadOmsdnRMafTibVr12LYsGF4+umncfr0afkRIjqDKzxUYzabDaNGjcLmzZtliYiI3MigQYPw+++/w2QyITc3F0888QSWLl0Ku90uP0o617JlS7zzzjsYM2YMDAaDLBN5NTY8VGNr167FmDFj+AORiMjN+fj4YNmyZTh27BieffZZFBUVyY+Qm7n++usxc+ZMNGzYUJaIvBYbHqoRh8OBm266CcuWLZMlIiJyQw0aNMCpU6fgcDhkidxU06ZN8d///hejR4+G0cjTC0RseKhG9u3bhwEDBqCyslKWiIiISCd8fHxw11134bXXXkNYWJgsE3kVtv1UI3PnzmWzQ0REpHM2mw2fffYZRo4cyYmq5PW4wkPVdurUKXTq1ImTYIiIiNxISEgIZs2ahVtvvZUDDcgrcYWHqu37779ns0NERORmSktLMWXKFDz66KMoLS2VZSKPxxUeqha73Y6ePXsiPT1dloiIiMhNDBo0CF988QWaN28uS0Qeiys8VC2rV69GRkaGjImIiMiNbNiwASNHjsTOnTtlichjseGhavnyyy/hdHIxkIiIyN1lZWXhqquuwvLly2WJyCOx4aFLysrKwqpVq2RMREREbspsNmPixIn4/PPP+UKTPB4bHrqkH3/8EWVlZTImIiIiN2axWPDYY49hxowZsNvtskzkMdjw0EVVVFRgwYIFMiYiIiIPYLfb8dprr+HFF1+E1WqVZSKPwIaHLmrr1q1IS0uTMREREXkIh8OB2bNn4/HHH4fNZpNlIrfHhocuav78+XA4HDImIiIiD/PFF1/gkUceYdNDHocND11QQUEBfv/9dxkTERGRh/rqq6/w2GOPsekhj8KGhy5oxYoVKCwslDERERF5sC+++ALPP/88mx7yGGx46LwcDgeHFRAREXmpjz76CDNmzOC2dvIIbHjovHJzc7FhwwYZExERkRdwOByYPn06Pv30U1kicjtseOi8li5disrKShkTERGRl7DZbHj22WexZMkSWSJyK2x46Lz+97//yYiIiIi8jNVqxb333oukpCRZInIbbHjoX44ePYrExEQZExERkRcqLi7GTTfdhMzMTFkicgtseOhfli1bxsksRERE9Lfs7GxMnjwZZrNZloh0jw0P/cvSpUtlRERERF5uy5YteOaZZ2C322WJSNfY8NA/ZGdnY+fOnTImIiIiwnfffYfPP/9cxkS6xoaH/mH16tUoLS2VMREREREcDgeee+457Nq1S5aIdIsND/3Dr7/+KiMiIiKiv1VWVmLSpEkoKiqSJSJdYsNDfzt16hS2bt0qYyIiIqJ/SE9P53kechtseOhvO3bsQGFhoYyJiIiI/uWHH37AwoULZUykO2x46G8rVqyA0+mUMREREdG/2O12PPvsszh27JgsEekKGx4CAFRVVWHdunUyJiIiIrqgkydP4sknn+T9faRrbHgIAJCVlYWMjAwZExEREV3UsmXL8NNPP8mYSDfY8BAAYN26dXw7Q0RERLXy3HPPoaCgQMZEusCGh+B0OrFmzRoZExEREVVLXl4eXnnlFRkT6QIbHkJVVRW2bNkiYyIiIqJq+/7777Fp0yYZE2mODQ/hwIEDOHnypIyJiIiIqs1iseD5559HVVWVLBFpig0PcTobERERuURiYiLmz58vYyJNseEhbNy4UUZERERENeZ0OvH222/j1KlTskSkGTY8Xs5ms2Hbtm0yJiIiIqqVI0eOYO7cuTIm0gwbHi+XlpaGwsJCGRMRERHV2vvvv8/zwaQbbHi83NatW+FwOGRMREREVGunTp3C7NmzZUykCTY8Xm779u0yIiIiIqqzuXPnIi8vT8ZEqmPD48WcTieSkpJkTERERFRnpaWleP/992VMpDo2PF7s5MmTOHLkiIyJiIiIXOLrr79GQUGBjIlUxYbHi+3fvx9lZWUyJiIiInKJwsJCfPPNNzImUhUbHi+WkpICp9MpYyIiIiKX+fzzz1FSUiJjItWw4fFiO3bskBERERGRS2VlZWH58uUyJlINGx4vZbPZsH//fhkTERERudzcuXNhtVplTKQKNjxeqrCwEDk5OTImIiIicrkdO3YgJSVFxkSqYMPjpbKyslBcXCxjIiIiIpezWq2YN2+ejIlUwYbHSx04cIADC4iIiEg1P//8M8xms4yJFMeGx0vt2bNHRkRERESKKSwsxIoVK2RMpDg2PF4qPT1dRkRERESKmj9/voyIFMeGxwtVVlbi8OHDMiYiIiJS1Nq1a5GXlydjIkWx4fFCpaWlOHnypIyJiIiIFGWxWLB06VIZEymKDY8Xys7O5o3HREREpIlffvlFRkSKYsPjhTIzM2VEREREpIrt27fjxIkTMiZSDBseL5SRkSEjIiIiIlWUlZVh7dq1MiZSDBseL3TkyBEZEREREamG46lJTWx4vIzT6URWVpaMiYiIiFSzefNmlJaWyphIEWx4vIzdbkd2draMiYiIiFRz4sQJ7N27V8ZEimDD42WsVitHUhMREZGm7HY7NmzYIGMiRbDh8TKnT59GcXGxjImIiIhUtWHDBjidThkTuRwbHi9z4sQJfnMhIiIizaWkpPAlLKmCDY+X4dx7IiIi0oOTJ09ykBKpgg2Pl+HAAiIiItIDp9OJHTt2yJjI5djweJn8/HwZEREREWkiKSlJRkQux4bHyxQUFMiIiIiISBPJycmw2+0yJnIpNjxehiOpiYiISC8OHTqE8vJyGRO5FBseL8MVHiIiItKL4uJiHDlyRMZELsWGx8sUFRXJiIiIiEgzBw4ckBGRS7Hh8TKnT5+WEREREZFm0tLSZETkUmx4vIjD4UBJSYmMiYiIiDRz6NAhGRG5FBseL1JeXo6KigoZExEREWmGDQ8pjQ2PFykrK4PT6ZQxERERkWaOHTsmIyKXYsPjRcrLy9nwEBERka7k5+dzNDUpig2PF+EKDxEREemN3W7nPYGkKDY8XqSqqkpGRERERJpyOp3Iz8+XMZHLsOHxIlVVVVzhISIiIt3hCg8piQ2PF6msrJQRERERkeYKCgpkROQybHi8SEVFBVd4iIiISHfMZrOMiFyGDY8XsVqtMiIiIiLSHC9GJyWx4fEibHiIiIhIj8rKymRE5DJseLwIt7MRERGRHh08eBBJSUk4dOgQzGYzn1nIpQwVFRX8HeUlfvzxR9x5550yJiIiItKcyWSCj48PfHx8EBYWhqZNm6J58+Zo06YNWrVqhdjYWLRr1w4NGzaE0ch39lR9bHi8CBseIiIicncRERGIi4tD586d0aVLF3Tv3h2xsbEIDg6Gj4+P/DgRGx5vsnDhQtx2220yJiIiInJrISEhaNeuHXr27Ik+ffqgd+/eaNGiBYKCguRHyQux4fEiK1aswHXXXSdjIiIiIo/i4+OD6Oho9OzZE/Hx8RgwYABiY2Ph5+cnP0pegA2PF9myZQuGDRvGg4BERETkVXx9fdG8eXPEx8djxIgRiI+PR4MGDeTHyEOx4fEie/fuxeWXXw6HwyFLRERERF7BYDAgKCgIvXv3xpgxYzBmzBi0aNECBoNBfpQ8BBseL5KdnY327dvDbrfLEhEREZFXMhqN6N69O6677jqMHTsWMTExMJlM8mPkxtjweLiysjKkpKTgt99+w59//onk5GT5ESIiIiI6c/and+/euP7663H11VcjOjqaKz8egA2PB6qsrMSOHTvwyy+/YOXKlcjKyuK5HSIiIqIaCA0NxeDBg3Hrrbdi2LBhCAkJkR8hN8GGx0M4nU6kpqbif//7H5YsWYLMzEye1SEiIiKqI4PBgOjoaNx444247bbbEBcXJz9COseGx82VlJTg559/xldffYVdu3bBarXKjxARERGRC/j5+WHw4MG47777MGrUKJ71cRNseNyQw+HAgQMH8MUXX+D777+H2WyWHyEiIiIiBbVp0wb33XcfJk6ciIiICFkmHWHD40YsFgs2btyIjz76CCtXroTNZpMfISIiIiIVNWjQALfddhumTJmCli1byjLpABseN1BZWYnly5fj/fffR2JiIs/mEBEREelMvXr1cMMNN+Chhx5C+/btZZk0xIZHx6xWKxYuXIj33nsPe/bs4aQ1IiIiIp0LCgrC2LFj8dRTT6FDhw6yTBpgw6NDdrsdS5cuxZtvvom9e/ey0SEiIiJyM35+frjhhhvwwgsvoHXr1rJMKmLDoyN2ux1r167F1KlTkZSUJMtERERE5Gb8/PwwadIkPPnkk2jRooUskwrY8OhESkoKXn/9dSxfvpwrOkREREQeJiwsDFOmTMGjjz7KqW4qY8Ojsfz8fMyYMQNffvklysvLZZmIiIiIPEizZs3w3HPP4dZbb0VAQIAskwLY8GjE4XDg22+/xeuvv46cnBxZJiIiIiIPZTAY0K1bN7zxxhsYOnQoDAaD/Ai5EBseDezfvx+PPPIINm3axO1rRERERF7KZDLh2muvxVtvvYXmzZvLMrkIGx4VlZWVYfbs2XjnnXdQWVkpy0RERETkhUJCQvDCCy/gvvvuQ2BgoCxTHbHhUcn27dvx6KOPYvfu3bJERERERITu3bvjnXfewYABA7jNzYXY8CisoqICM2fOxKxZs1BRUSHLRERERER/8/f3x1133YVXXnkF9evXl2WqBTY8Ctq/fz/uv/9+bNu2TZaIiIiIiC6odevWeO+99zBy5EhZohoyyoDqzuFw4KuvvkJCQgKbHSIiIiKqscOHD2P8+PF48MEHYTabZZlqgCs8LlZUVIRHHnkECxculCUiIiIiohqLiYnBnDlzkJCQwLM9tcCGx4USExMxefJkpKenyxIRERERUa35+vrikUcewQsvvICgoCBZpotgw+MCdrsd33zzDZ5//nkUFxfLMhERERGRS1x++eX4+OOP0bFjR1miC+AZnjoqLy/H448/jkceeYTNDhEREREpavv27Rg+fDjmzZsHh8Mhy3QeXOGpg9zcXEycOBFbtmyRJSIiIiIixRiNRkycOBHvvfceQkJCZJnOwYanlhITE3HzzTcjOztbloiIiEgjBoMBJpMJPj4+MJlMMBqNMBr/vaHF6XTC4XDAbrfDbrfDZrPxbTm5pc6dO+Prr79Gp06dZInOYMNTQ06nE4sWLcIDDzzAEYFEREQaCA4ORnh4OJo1a4aWLVuiRYsWaNq0KRo1aoSIiAhEREQgKCgIAQEB8PPzg6+vL4xGIwwGA5xOJ5xOJ2w2G6xWK6qqqlBRUYGysjIUFhbi1KlTyM/Px7Fjx3Ds2DEcPXoUJ06cwOnTp1FZWSn/VYh0ITw8HLNnz8b48ePP2+B7OzY8NWC32/H+++/j1VdfhcVikWUiIiJysYCAALRp0wbdunVDjx490KVLF8TExCAyMhLBwcHy4y7ndDpRUlKCwsJCHDx4EHv27EFSUhJSUlKQlZUFq9Uq/xYiTZyd4vbyyy/D399flr0aG55qstlseP755/Hxxx/DbrfLMhEREbmAwWBA27ZtMWTIEAwZMgSXXXYZGjZsCD8/P/lRTVVWViI3Nxdbt27F6tWrsWbNGuTk5MiPEanKYDBg5MiR+OqrrxAeHi7LXosNTzWUl5dj8uTJWLx4sSwR1UirVq0wcOBAGWvO6XTi119/dcttmiNHjkTDhg1lrLiUlBSkpKTI2O3069cPbdq0kbEq7HY7fvrpJ9hsNllyO6NHj1b94aKystJjLrk2mUzo3Lkzxo8fjzFjxqBt27bw9fWVH9M1i8WCXbt2YdGiRfjll1+QnZ0Np5OPWKSN2NhY/Pjjj+jQoYMseSU2PJdw6tQp3HrrrVizZo0sEdXY9OnT8dhjj8lYF+644w4sWLBAxrr32Wef4bbbbpOx4ubNm4cpU6bI2O0sW7YMw4cPl7FqOnXqhMOHD8vYrRgMBhw5cgRRUVGypKjt27dj8ODBMnYbBoMBzZo1w4QJE3DzzTd71IFrm82GtWvX4ssvv8TKlStRXl4uP0KkuIiICHz55ZcYOXIkDAaDLHsVnmq6iNzcXIwfP57NDrmEr68vhg4dKmPdSEhIkJFb2L17t4xUERcX5/YHQwMDAzVb3TnLEy7Oa9y4MSIjI2WsuMTERBm5BR8fHwwYMABff/01du/ejTfeeMOjmh2c+W8cPnw45s+fj8TERDz22GOa/B4h73bq1CncdNNN+Oyzz7x+AqF7/7RW0LFjx3Dttddi69atskRUK82bN9f10vKgQYPcbgsJACQnJ2uybaRFixYIDQ2VsVuJiIjQZDvguTzhQTcuLk6Tt6daNfu1ZTKZMGrUKCxfvhwrVqzAjTfeqMrQAa3FxMRg+vTp2LFjB5544gnUq1dPfoRIMZWVlXjqqafwyiuveMT24dpiw3MeR44cwejRoz1ifz7px5AhQ3TdUDRv3hxt27aVse4dOnQIxcXFMlZcgwYN0KBBAxm7lZiYGM0fOD1hhadjx45seC6hf//++O233/Dzzz8jPj4ePj4+8iMer0mTJpg2bRq2bNmC8ePHa/J7hryTzWbDzJkzMXnyZFRUVMiyV2DDIxw+fBhXXHEFMjIyZImoTkaNGiUjXfH398eAAQNkrHv5+fmaTEby9fVFbGysjN2KHlYcPaHhad++vYwUV1hYiMzMTBnrTnR0NL755husXLkS8fHxMJlM8iNep3Xr1pg3bx5+/vlntGjRQpaJFLNgwQLceOONbjmgqK7Y8JwjIyMDY8aMQVZWliwR1UlQUBDi4+NlrDt6PmN0IXa7HXv27JGxKtx9O5Ye/v1bt26t+SpTXWnxdUxLS9P1QXhfX1/cd999SExMxI033uiVKzoXYzQaceWVV2LLli244YYb3P48ILmPVatWYfTo0cjOzpYlj8Y/YWccPnwY48ePd4s3ZuR++vTpg7CwMBnrTu/evd3yXMrOnTtlpAo9rJDUlsFg0GRlQvL390fr1q1l7Db8/Pw0GfyQnJys20PIMTEx+OWXXzBr1iy3+L6npYiICHz99deYMWMGAgICZJlIEUlJSRg9erRX7WZiwwMgJycH119/vVf9wpO6Ro4cKSNdatKkCeLi4mSse6mpqZoMLmjfvr3bbtEJDAzURaNhMpncunFs2rSpJofQtWryL8ZgMOCaa67BmjVrMHz4cJ5RqSaj0YgHH3wQCxYscPtzgeQ+0tPTcfXVV2Pfvn2y5JG8vuEpKirCuHHjsH//flkicgmDwYARI0bIWJdMJpNb3uuRlpamyUHMVq1aITAwUMZuITw8HE2aNJGxJtz5HE/r1q1VfzPvcDh0N1THaDTi5ZdfxnfffYdGjRrJMlXDiBEjsGTJEjRt2lSWiBRx5MgRXH311br7fqIEr254zGYzxo0b5xW/0KSdNm3aoF27djLWrYSEBLd7M3vixAnk5ubKWHERERFu+3DSrl073Zyr6Ny5s4zcRocOHVT/81JQUIAjR47IWDPBwcH49ttv8dxzz+l6EqU76NmzJ5YsWaKblxHk+Y4fP45rrrkGu3btkiWP4rUNT2lpKW677Tbes0OKGzp0KPz8/GSsWz179nS7ffcOhwOpqakyVoUezsHUhp6aDHe+xFWL1amDBw9qMor9fCIiIrBw4UKMGzdO9cbPU3Xu3BmLFy9GRESELBEp4uTJk7j22mvd9jLj6nDPnzB1ZLFY8PDDD+PPP/+UJSKXGz58uIx0LSIiAj169JCx7ml1pkFPjUNN6KlRa9SoEaKiomTsFrT4Omp12a7UoEED/PTTT0hISJAlqqOuXbviq6++gr+/vywRKSI/Px/jx49HUlKSLHkEr2t4HA4H/vOf/+B///ufLBG5XP369dG3b18Z696QIUNkpHtabU3V4oG3rgwGg64ateDgYLRq1UrGuhcSEqLJv7dWzf256tevjx9++AH9+/eXJXKRESNG4PXXX+fKGakmLy8P48aNQ3Jysiy5Pa9reD766CPMnj1bF2/HyPP16tULkZGRMta9hIQEt9tilJKSosmYXi22NNWVyWRC27ZtZawZo9Holo1jVFQUwsPDZawom82mWXN/lr+/P+bNm4eBAwfKErmQwWDAfffdh2uvvVaWiBSTl5eH6667Dnv37pUlt+ZeTzR19Ntvv+H555+H3W6XJSJFjBo1yu0aBwDo1q2b2+0fP378uCaDC9q2bet2206aNm2qu0ZcTytO1dW2bVvVp/SdPn1a04EFBoMBs2bNcpvJk+7O19cXs2bNQrNmzWSJSDEnTpzAddddh/T0dFlyW+73JFZLSUlJuOuuu2Cz2WSJSBG+vr5uOeIZZy5THDBggIx1T4tleH9/f00unqwLPa6muONdPFrcWZWeng6z2Sxj1Tz44IOYNGmSjElBTZo0wZtvvum2d36Rezp27BjGjx+v6QsWV/KKhicnJwe33367pj8kyPvExMRo8kDkKu54jmf37t0yUoW7bWvr1KmTjDSnxWpJXWnx667V73EA6N+/P6ZOneqWq9bubvz48Rg2bJiMiRR18OBBTJgwAQUFBbLkdjz+u1ZpaSnuvPNOHD58WJaIFJWQkOB2W53ONXToULc7LKvVPQLutjqhxYP6pTRo0MCtbpk3Go2avNDQquGJiIjAhx9+iJCQEFkiFZhMJrzxxhtudcUBeYbk5GTceuutKCsrkyW3YqioqPDY0/t2ux2PP/445s6dK0tEijIYDFiwYAHGjBkjS27DarWiW7duyMzMlCXdatWqFfbt26d6o7Z06VJMmDBBxrq1adMm9OzZU8aau/LKK7F27VoZ61JoaCh27dql6tkKm82GAQMGqD60wGAw4L333sOUKVNkSVdOnTqFQ4cO4fDhw8jNzcXp06dRWVkJh8MBk8kEf39/hIaGIjw8HE2bNkWLFi3QqlUrt1pZvOuuu/DDDz/ImEhxY8eOxbx589z2cmGPbng+/fRTPP7445zIRqoLCwvD3r17dXcwvKbuv/9+fP311zLWrYCAAOzduxdNmzaVJUWlp6ejW7duMtalgIAAZGVl6fJy2SeeeAIff/yxjHWpVatWSElJUfWH/+nTp9GmTRuUl5fLkqLi4+OxfPly+Pj4yJKmiouLsXbtWqxcuRKbNm1CZmYmbDZbtac1nm2C2rVrh759+2Lw4MFISEhA/fr1VX9pUl0HDhzA5ZdfDqvVKktEinvwwQfxzjvv6PbPx8V47Ja2zZs347nnnmOzQ5q47LLL3L7ZgRue46mqqsK+fftkrLimTZuqPp64tlq2bImgoCAZ64I7TWpr166dqs0Ozjzsqt3s+Pn54d1339VNs2O325GYmIj77rsPsbGxmDBhAr788kukpaXBYrFUu9nBmX9WeXk5kpOT8emnn2LixIlo27YtbrrpJvz++++orKyUf4vm4uLicNVVV8mYSBUff/yx217t4pENz4kTJzB58mRdfrMi7zBq1CgZuaV+/fohICBAxrrldDqRmpoqY8UFBgYiJiZGxroUGxur+oN6dbVv395tDsRrcW5LixvQ77zzTnTp0kXGmti5cyduuOEGDBkyBN98840ig4jKy8uxdOlSjB8/HvHx8ViwYIGuVlMMBgPuuecet/lzQp7F4XBg6tSpWLRokSzpnsf9ibFYLHjwwQeRlZUlS0SqMBqNHnNHRePGjXU5wvhitLiF3mQyuc3XSc//njExMQgODpaxLmnR8Kg9sCAsLAxPP/20jFVXUlKC5557DsOHD8fvv/+uyvUSZ1+eTJo0Cddccw0OHDggP6KZ/v37azIwgwjnPGdr8QKmLjyu4Zk1axZWrFghYyLVtGzZ0mN+GPn6+mLQoEEy1rU9e/bUaFuLq2jxAFwbenlbfz4NGzZ0i0ltRqNRk8ZR7SmEd911l6pDGc4nPT0dI0eOxOzZs1FRUSHLinM6nVi7di0SEhLw448/yrImAgMDMW7cOBkTqeb06dOYOHEi8vLyZEm3PKrhWbNmDd5++2233FtInmPkyJGKH+g7ePAgiouLZayIoUOHykjXjh8/jpMnT8pYcXq820YyGAy6bsZNJpOu//3O8vPzU/2y2dLSUqSlpclYMWFhYbjvvvtkrKqNGzdi6NChqq9snY/ZbMY999yDt956C3a7XZZVd80113BENWnq6NGjmDhxournCmvLYxqevLw8PPDAAzy3Q5pT4/zOhx9+qNr43p49e6J+/foy1q2SkhIcPHhQxopr166dbg52X0hYWBiio6NlrCvuMLigUaNGqq9E7dmzR5WtXGeNHTsWLVq0kLFqNm7ciHHjxqGwsFCWNGOz2fDaa6/h3Xff1fzFaocOHRAbGytjIlVt2rQJzz33nC5eAlyKRzQ8DocDjz/+OM/tkObq1auH/v37y9jlNm7ciC1btshYEVFRUW7xEHqW0+lU/Z4SnPk6RUVFyVhXmjdvjtDQUBnrijtsDYyNjVV8FVdSc7+8r68vJk+eLGPVpKenY+LEiSgpKZElzTmdTrz++uv46aefZElVvr6+GDZsmIyJVPfll1/iiy++kLHueETDM2/ePLecGEGep0+fPqhXr56MXerEiRM4ePAgNm/eLEuKMBgMSEhIkLGuqX3WAWcuomzevLmMdUWLUco11alTJ5hMJhnrihbbF9X8Pd2tWzf06NFDxqooKSnBHXfcgfz8fFnSDbvdjkceeQQZGRmypKohQ4ao3ngTSXa7HS+//LJqL2Fry+0bnoMHD+L555/XfHmZCABGjBih+A+gxMREWCwWpKWlqbbdIyEhQfcPoedKTU1VfYldq4PsNdGxY0cZ6U7r1q11fzZBi1/n5ORkGSnmpptu0mx75rRp03RxZudSzGYzHn/8cVW3GUo9e/ZESEiIjIlUV1xcjHvuuUfXLyrcuuGpqqrCQw89hNOnT8sSkep8fHxU2WKwYcMGOJ1OlJSUqHbnTNeuXRERESFj3Tp27BiKiopkrDi9b/3TYmWipkJDQ9GyZUsZ64rav84FBQWqbdkOCgrC1VdfLWNVJCUl4dNPP5Wxbq1ZswbLli2TsWqioqLQtm1bGRNp4tChQ7jvvvtUf9lYXW7d8Hz00UdYv369jIk00a5dO8UnNzmdTmzatAk4c3Zt69at8iOKCA0NRe/evWWsW6dPn8bhw4dlrDgt3vxXl4+PD9q1aydjXdLzSpSPj4/qD5lpaWmqTULq2bOnJsMK7HY7Xn/9dbcaPORwODBjxgxUVVXJkmp69eolIyLN/Pbbb/jvf/8rY11w24YnNTWVI6hJVwYPHgx/f38Zu9TJkyf/MYFMzT2zQ4YMkZFuaTW4oE2bNggMDJSxLtSvXx9NmzaVsS7peSVKi8EPycnJqt0tddVVV8lIFYmJiVi1apWMdS8lJQVr1qyRsWr0fK8Weadp06b9/WJWT9yy4amqqsKTTz4Js9ksS0SaMBgMGDFihIxdbteuXf+YXJSamqran4PBgwe71TkeLc4BNGrUSLcjvJs1a4awsDAZ65LaW8ZqIi4uDkajuj861ZrQZjAYVNmWez6ffvqpbrfCXIzD4cC8efM0e/nauXNnxc+NEtVERUUFHnjgARQUFMiSptT9ru0iX375JTZu3ChjIs3Ur19flS1fmzdv/scP1ry8PNW2bnXs2BGNGjWSsW6lpKSo/gAVHByM1q1by1gXtHhQry09j6ZW+9/N4XCodlYvKipKk9W106dPa3oWpq7++usv1QbISK1bt2bDQ7qTnp6O559/XvWfwRfjHj/9znH06FFMnTpVs7cpROfTu3dvxe9gcTgc/1omttvtqm1rM5lMbjWe+uDBgygrK5Ox4vR6jsedtr40b95ct6tRap8vys/Px9GjR2WsiL59+2qyirt8+XKUlpbK2G2YzWbNXsI2bNhQ8asQiGpj/vz5WLBggYw141YNj8PhwBNPPKHLy8jIu40cOVJGLldYWIgDBw7IWLWGB252jqeoqEi1yVbn0ut2rLi4OBnplp+fn+qDAapL7RWegwcPori4WMaKuPzyy2WkihUrVsjI7Wh1jsdoNCI6OlrGRJpzOBx4+umnkZmZKUuacKuGZ/Hixfj9999lTKQpPz8/VVY+9uzZc95Ry7t27UJFRYWMFREfH+8226Kg0Tme9u3b626Lib+/P2JjY2WsW0ajUfWVlOoICgpCq1atZKyo5ORk1XY09OzZU0aKs9lsql2irKRt27apNlhCaty4sYyIdKGwsBCPPvqopvdVneU2Ty5FRUV4+eWXNfuGQnQhLVu2VGUb04W2TBw5cgQ5OTkyVkTTpk1V+W91Fa0mtSk9ra+mgoOD3e4tsB4bnujoaNUvety5c6eMFGEymTT5s3348GFdX1ZYXenp6aqNDpfcZfoieac///wTX3/9tYxV5zYNz8yZM1U7nE1UE8OHD1d837vD4bjgW1CbzYYdO3bIWBE+Pj6Ij4+XsW7t3LlTtbfjZzVp0kR3k9piYmIQHBwsY13T4vD8pbRt21bVZtZms6k2sKBJkyYIDw+XseL27t0Lq9UqY7dTUVGhyRZaAG51KTR5p5dfflnzZ3i3aHhSU1PxySefyJhIF0aNGiUjlyspKUFycrKM/3ahZkgJQ4cOlZFu7du3T/WldB8fH92dl9HjasmlxMXFwcfHR8aaUnsFpKioCEeOHJGxIlq0aAE/Pz8ZKy4jI0NGbkurswp6e8FCJJ0+fRpPPPGE6j+Pz6X7hsdms+Hll1/WZNoS0aUEBwdjwIABMna5vXv3nvf8zllbt25Vbfzj5Zdfrvq2ntoym804dOiQjBWnt8EFelwtuZSIiAjdnU1Q++uYnp6u2j1bLVu21OR8nhZ/PpWi1jQ9yd1Wb8k7/fnnn/j+++9lrBr1v7vV0MqVK/Hnn3/KmEgXBgwYoMrD/4XO75yVlpam2j0QDRo00N0D/cVcbGVMKXpb4VF7spgrBAcHIyYmRsaaMRgMqv+6qjl0Q6tzILm5uTJyW1pdtBgUFCQjIt1xOBz4z3/+o9qZY0nXDU9VVRVeeuklDiog3VJjHLXT6fzX/TuS1WpFYmKijBVhMpnc6hyPFg2Pnu68MRqNqj+ou4LBYNBVo1avXj00b95cxoryhobn1KlTMnJbaq3GSWq8dCNyhRMnTuDVV1/V5Lle1w3PV199dd57R4j0wGg0qtLwWCwWbN++Xcb/ouY5niFDhuhu9PKF7Nq1S0aKi42N1c3XJywszO0mtJ2l9hayi2nUqJGqZyVsNpuqzXrDhg1lpApP2q6u1X+LFmeviGrrhx9+wLp162SsON02PKdOncL06dNlTKQbsbGxqtzJsWfPHpw+fVrG/3KpbW+u1K1bNzRo0EDGuqTFFKiIiAg0a9ZMxpqIi4tTfIqgUvQ0bCE2NlbVB8uSkhIcPHhQxooJCwuTkeKcTieqqqpk7LbUug9N0uLsFVFt2e12PPXUU6r/2dftn5L//ve/yMvLkzGRbgwbNgy+vr4ydrkNGzbI6Lz27NmDkpISGSsiPDwcPXr0kLEumc1mTcbF6mU7llLnrS42Kt1VYmJidLNdR+0JbQcOHFD1ATo0NFRGqtBia4tS1BocI+llNZmouvbt26f69GVdNjxHjhzB559/LmMiXRkxYoSMFFHdlZvy8nJV9/wPGTJERrpksViwZ88eGStOL6sTSj2om81mvPzyy6isrJQll4mMjERUVJSMNaH2r2dSUpKMFBUQECAjxRkMBt2NHq8LNh5E1TdjxgxkZ2fLWDG6bHhmz5590RG8RFqLjIxE7969Zexy1T2/gzPbQ7Zt2yZjxQwcONBtHlbUPAtxltoPyBei1DmY3Nxc7N27F8XFxbLkMgEBAWjXrp2MVWcymVQf/KDmywsAqqxWn48WjRYRae/UqVOYNm2ajBWju4YnIyMD3333nYyJdKV3796q3Eq+f//+Gk0xutQ0N1fq1KmTZgeda0rth0fopOExGo2KrfBkZGTAbDYrfnu2HrYGhoSEqD74Qe1hG1qd89JqKx0Rae/HH3/Ejh07ZKwIQ0VFhVOGWnE6nbj//vvxzTffyBKRrsycORMPPPCAjF3uo48+wpNPPinjC2rYsCH279+v2r0Mt912GxYuXChj3WnevDlSU1Ph7+8vS4opKipCmzZtVD2HITVr1gx79+5V5L/7zTffxOuvv445c+bgrrvukmWX+e6773DPPffIWFWxsbHYtWuXaofDi4uLER0dreqwjZ07d2rSXE6YMAFLly6VsVtq1KgRunbtCqdT3ceqgoICTV7qELnC0KFDsXjxYsVXmXXV8KSnp6Nv376aPiAQXYq/vz+2bNmiysPBxIkTsWjRIhlfkI+PDzZs2IDu3bvLkiK+/PJLPPjggzLWncDAQCQmJqJ169aypBiLxYLevXsjPT1dllQzePBg/P7774qcLTjb7D744IN49913ZdllEhMTkZCQoNmBcAAYM2YMfvrpJxkrZsuWLRg6dKiMFbVjxw7FBlxczDPPPIMPPvhAxkTkJYxGIxYsWIDRo0fLkkup87qqmv773/+y2SHda9OmDdq2bStjl6usrKzxZaI2m63aZ35cIT4+XrOtMDVRUVGB/fv3y1hRfn5+iI2NlbGqOnbsqEizY7Va/27k9u/fr+gb7ZYtWyI4OFjGqlJ7e6LaAwtw5nuHFvRwRouItONwOPD6668rOgAHemp4jh49ih9++EHGRLozZMgQxZdeAeDgwYM4efKkjC9JzXM8bdq0UeUuIldISUmRkeK0bniUWoUsLy/H0aNHgTMr80puvWrQoAGaNGkiY1UpdQ7qQtQ+vwMN75Dp1KmTalsFiUifkpOTFd8er5vvMu+//77i3R1RXRkMBgwfPlzGitixYwcsFouML2nnzp2qXehlMBgwePBgGeuSFnvcu3btKiNVKbUycezYsb8vwz1+/LiiUzUNBoOmjaPJZFKscbwQLaYKlpaWykgVnTt3Vu3MIRHp15tvvqnos4suGp4TJ07g22+/lTGR7tSvXx/9+vWTsSLWrVsno2o5duzY32/f1TBs2DAZ6dL+/ftVf6kSFxenyJay6ggMDFTszNK52wMdDgfS0tL+UXe1bt26yUg1/v7+iImJkbFi8vPzNbko12w2y0gV9erVQ8+ePWVMRF4mMzMT8+bNk7HL6KLh+eyzzxS9y4HIVfr06YOwsDAZu1xlZWWt9/FXVVVh586dMlbMwIED4efnJ2PdycnJQWFhoYwVFR0drcrvl/Np0qQJ6tevL2OX2Lt37z/+OjU19R9/7Wpqbyk7l9q/hmlpaZpsLysoKJCRasaMGSMjIvJC7733HsrKymTsEpo3PKdPn1a0oyNypZEjR8pIEUePHq3TKs3mzZtlpJjIyEhNpjvVVHl5OQ4cOCBjRYWFhaFZs2YyVkWbNm0QGBgoY5eQAyCU/rp26NBBs+EYal84mpycDIfDIWPFnThxQkaqGTt2rFu8NCEiZWVlZWH+/PkydgnNG56ffvoJx48flzGR7hgMBowYMULGiqjt+Z2ztm/frtrUJZPJhPj4eBnrktpnI3x9fVWZ6Hc+Sq2K2O32fzU4Sq/wxMTEKNa8XYpS56AupLYru3WlZcMTHR2t2sskItIvp9OJDz74QJFVHk0bnsrKSsydO1fGRLrUrl07tGnTRsaK2Lhxo4xqJCMjQ9XtW+5yjkfthgcaPDCf1alTJxm5RHl5+b/OmKSnpyt6T46S55EuRc2BBQ6HQ/Hm8UKOHj2q6HjxizEYDHj44Yc5rY2IcPDgQfzyyy8yrjNNv7usW7cOe/bskTGRLo0aNUqVA+gWiwXbtm2TcY2UlZWpOtq2Z8+eip0XcaXU1NQ6rZzVhlKNx8UYDAbFVngOHTr0r69hcXFxnbZgVodW2ybVbFjz8vJw7NgxGavi2LFj//p1VdOAAQNUW0EnIv1yOp348MMPXT5kSLOGx+Fw4LPPPtPsjRJRTan1wzg3NxcHDx6UcY2peR9P/fr10aNHDxnrTlZWluoDUmJjY+Hj4yNjRdWrVw8tW7aUsUvIgQU48/1cbnNzNTUbj7P8/f1VXVk6ePCg6r8/z8rJyVFkG0l1mUwmvPrqq5pfMktE2ktNTcWqVatkXCeaNTyHDh3C6tWrZUykS/Xr18fll18uY0Vs377dJRc5btu2TbXDz0ajEQkJCTLWnYqKCsVHKEvNmjVDvXr1ZKyoqKgoREZGytgl5MACnHkjp3TDo8VKmdpnh5KTkzV7CVhVVYWMjAwZq6p79+545JFHVFlJJyL9cjqdmDNnjku3SmvW8MybN0/RC4aIXKl///6qPbTW9fzOWcnJySgvL5exYuLj491iD76aW/0AIDw8HNHR0TJWVGxsLHx9fWXsEudb4QGg+PbkDh06qP4gHBcXp+rvaTXHyZ+P1v/7APDUU09h4MCBMiYiL7NhwwaXXhiu3nfyc1gsFnz33XcyJtKtkSNHqvKw5XA4XLYVrbi4+IIPp0ro2LEjGjVqJGPdUXtwgcFgQLt27WSsKCUP2l9oJed8Kz+u1LhxY8VWrS5Eya+jZLVaNRtYcFZiYqKMVBcUFISvv/5a9ZcERKQvdrsdn3zyiYxrTZOGZ/ny5cjNzZUxkS75+vpi6NChMlZEQUGBSx8cN2zYICPF1KtXD71795ax7uzevVv1bUNdu3aVkaKU2v5VUFBwwfHFSp+P8vX1Vb1xVOrreD5FRUU4cuSIjFW1efNm1f9snE/Tpk3xyy+/oEGDBrJERF5k4cKFOHnypIxrRZOGhxeNkjtp3769YgfApa1bt7p0z+qWLVtkpCi1GsO6yMjIUP1wtlIT087Hx8dHscsyDx06dMHzZWVlZYpOGDMajao2IFD50tH09HRFG8bqOHLkCDIzM2WsiS5dumDRokVo3LixLBGRl6isrHRZz6B6w3PkyBGsX79exkS6NXjwYNVuAXf1isyOHTsu+ICqhAEDBqj2taqtqqqqC27LUoqSZ2qkwMBAxRr0ffv2XXAQhsViUfzQu5pbzMLCwtCiRQsZK8aVe9Vry+l0unwyUl1cdtllWLp0qeore0SkH998841Lzvyr3vD8/PPPqh6kJqoLg8GAUaNGyVgxrhpYcNapU6eQnp4uY8XExcWhadOmMtYdtQ9nt2jRAkFBQTJWRNOmTRERESFjl7jUdst9+/bJyKXUXOFp3ry5ar9m0EnDAwC//fabjDTVpUsXrFy50m0uNyYi18rMzMSaNWtkXGOqNjw2mw0//fSTjIl0KzIyEr169ZKxIgoKClw+Mtlut6u6rc3X19ctJiylpKTISFFBQUGIiYmRsSJiY2MVG7BxqYZG6SEZ7dq1U20FsV27dqqtytlsNtWHaVzIpk2bdHfGtkmTJvjll1/wwgsvwGQyyTIReTCHw4Fvv/1WxjWmasOTmpqq+A9EIlfq06cPwsPDZayI7du3u/xmYZw5iKwmd3gTq/Zoaqh4caZSAxKsVuslVwvT0tJcegZNql+/Ppo1ayZjRai5fa6kpMQllw27QmlpKZYtWyZjzfn5+eHll1/GqlWrVF3pIyLtrVq1Cjk5OTKuEVUbnsWLF6t6noCorkaOHCkjxSg1IWn79u2w2WwyVsygQYNUezNeWwcPHkRJSYmMFaXWQ5pSAxJyc3NRVFQk4384fvz4JT9TF4GBgWjdurWMFaHWrxfObBVU4mVHbX3//feKNq510bdvX6xduxYvvfQSwsLCZJmIPFBxcTEWLVok4xpRreGprKzE8uXLZUykW/7+/hg8eLCMFeF0Ol12/450/PhxHD16VMaKadasGWJjY2WsK+Xl5Th06JCMFaXGCo/BYFBsZSIrK+uS0+3MZjOys7Nl7DJK/vedy2g0qnpQPikpSUaa2rlzp+7+nc4VEhKCF198ERs3bsSECRN0/4KFiOpu4cKFdVo0Ua3h2bt3r+qTkYjqok2bNqo99BQUFCj256OiokL1Q/pDhgyRka5ocWZCqZWXcwUEBCi2AnLgwIFLrkA6HA6Xn0OTOnfuLCOXCw8PV3X4hl4GFpxltVrx8ccfX/LXW2tt27bFV199hdWrV2P06NE830PkwXbt2nXJbdUXo1rDs2zZMt0ukROdz9ChQ2E0qvNHJCUlBWazWcYuo+bgAgBISEiQke6oPbigefPmim/Bad26NQIDA2XsEtU9f7lnzx4ZuVT79u0VG8pwVtOmTRX/tTqX2i8kqmPp0qWKN6+uYDAY0Lt3byxYsABr1qzBtddey8aHyANZLBYsWbJExtWmytOc1WrF77//LmMiXbvyyitlpBilzu+ctXnzZlVfOAwYMEDVkb61ofbgApPJpPhWPyW3zV1qJPVZ1f1cbbVq1Qr16tWTsUu1a9cOPj4+MlaE2WxWfXtldZSXl2PGjBmKfl9yJaPRiN69e+PHH3/Ezp07cc8996B+/fryY0TkxuoyC0CVhufw4cPVfjtIpAf16tVDv379ZKwIJc/vnJWZmYm8vDwZK6ZevXro2bOnjHXl0KFDqt9sr/R2LKXOt5SVlSEzM1PG55WRkaHoAfyIiAg0atRIxi6lZOMo7d27t9Y/wJX2888/63L16VJiY2Px/vvvIyUlBe+88w46d+6s2mo9ESln7969tV55VuU7wIoVK1R9u0xUV4MHD1Zsa5BUVFSk+AsBs9mM1NRUGSvGaDSqNvChtoqKilQd5gAFG5KzlGqoCgoKUFBQIOPzysnJUXQCnq+vr+IrZUr/Op1Lzw2FxWLB888/77Y/v6OiovDQQw9h06ZNWL58OW6++WbVrhkgItdzOBy1HpuvWsND5E7UvEtm//79KCwslLHL8RzPP1mtVsUbTUnplYO4uDgZucShQ4dQUVEh4/OqyWpQbSn5dfT19VVtWAl03vAAwIYNG/DNN9/I2K34+fkhISEBX375JZKTk/Hpp59i6NChnO5G5IaWLl0qo2pRvOEpKSlR/UGLqC5MJhNGjBghY8Vs3LhRlX3yW7duVeV/56wuXbqgYcOGMtYVtc/xxMXFKXagOjw8HNHR0TJ2iZqey9m3b5+MXErJO3JCQkIU+zqej9rTAmvj5ZdfxuHDh2XslqKionD77bdj2bJlSE1Nxeuvv46OHTsqPgiDiFwjJSWlVtcfKN7wrF+/HlVVVTIm0q2OHTuiefPmMlaEGud3zkpNTVX1zEq9evVw2WWXyVhX1J7UpuT5k1atWsHf31/GLlHTlbCafr6m2rdvr9jb+ejoaNUOu+fl5eHIkSMy1p1Tp07hwQcfrPYqnzswGo1o2bIlnnrqKSQmJmLTpk14+OGH0axZMzY/RDrmcDhqtXNM8Ybnr7/+khGRrg0bNkyxhymppKREtTs4CgsLFbvr53wMBoPu7+NJT09X9LyJFBAQgDZt2sjYJTp27KjI6pHD4ajx75v9+/cruprYokULBAcHy9glYmNjVXvgTUtLc5smYu3atXjzzTfhcDhkye0ZDAb06NEDM2bMQGpqKn7++WdMmDABERER8qNEpAMrV66U0SUp2vA4nU6sXbtWxkS6puZ2tvT0dOTn58tYMWpvLx00aJBq431rIy8vD7m5uTJWjNFoVOwCUqUO2peXlyMrK0vGF5Weng6bzSZjlwkLC1NsFVbJ7XJScnKyWzUQs2fPxg8//CBjjxIYGIgrr7wSX3/9NXbv3o25c+di2LBhqg2xIaJL27JlC8rKymR8UYo2PMeOHfOYfb/kHaKiotCjRw8ZK2bjxo0yUtSWLVsUffMutWvXDs2aNZOxblitVsXPm0hKHbhX6kG9oKCgxiPNjx8/jqKiIhm7jMFgUGxAg1IN6fkkJSXJSNesVisee+wxbNiwQZY8UlRUFG699VYsXboUSUlJmDZtGrp27araCiARnV9RUVGNB74o2vDs2LFD0fsYiFytb9++qo4tVev8zlk7duxQ9c6PoKAg9OnTR8a6ovZDpxINj4+Pj2KTxdLS0mo8lthutyM9PV3GLtWlSxcZ1ZmPj4/iI6/Pstvtqo6Kd5XS0lJMmDBB9YEfWjIajYiJicETTzyBTZs2YcuWLXjkkUfQpEkTNj9EGnA4HFi/fr2ML0rRhkfthzmiuho5cqSMFGO1WrF161YZK+rEiROqr7oOHz5cRrqSkpKi6qpX69atXb49JioqClFRUTJ2idoOIFB6+pgSjWNgYCBatWolY0Xk5+fXatKQHhQVFeHaa69V/WWBHvj4+KBbt254++23kZaWhsWLF2PixImqvigjov8bilYTijU8TqcT27ZtkzGRbgUGBqp6Web+/furfZmjK23evFlGiurXrx8CAgJkrBsHDhxQdSVaiUltLVu2REhIiIxdoqYDC86q7W3Y1dW+fXuXD2lo1aqVYsMQpIyMDFWnJrpafn4+rrvuOq/Z3nY+vr6+GDlyJL744gvs2bMHn3zyCfr37w8/Pz/5USJysb1799Zo67RiDU9+fj4OHTokYyLdatu2LWJiYmSsGLXP75yl9uCCmJgY1d6a10Z2draqjWdQUBBat24t4zqJi4uD0ej6b+cOh6PWKzx79uyRkUsp0eSpeX4nOTlZ1ZVFJeTn5+OGG27AokWL3P6/pa4iIiJwxx134I8//sDatWtx7733csobkYKKiopq9ELO9T8hz0hLS3Prt1fkfYYNG6bqRDGttnyqvY3OZDKpunJWU3a7XfGHc8nVD9adO3eWkUvYbLZav7iqzdmfmvD19XX5uSUltsldSE0P3OqV2WzGpEmTMHPmTK9venDm+12PHj0we/Zs7N69G9OmTUOLFi3kx4iojhwOB3bs2CHjC1Ks4dm9eze/+ZHbMBqNqo6jttlsqq+0nHXkyBHVzw4kJCTISFfUPoDt6olqSk0sO3r0KMxms4yrpbi4WPHfZ64eXKBWw2O1WlVvspVksVjwyiuv4Pbbb6/17xdPFBUVhSeeeAK7du3Cxx9/7PIGncjbbd++XUYXpFjD4ylvr8g7hIeH4/LLL5exYtLS0lS9f+dcVqu1Rt8kXGHgwIHw9/eXsW6odfnrWe3bt3fZdKfAwEDFHqT2798vo2qz2+012m5QG66+e8jVK28XUlRUVOO7jfTO6XRi4cKFiI+Px7Zt2/jC8xxBQUGYNGkSEhMT8emnn7p8SyuRt9qzZw+qqqpkfF6KNDw2m031uy2I6qJ///4uPw9wMVu2bFH0YsZLUXt1qUGDBi5/G+9Kak9qc+X5k/DwcMUmtNXl+7jT6axTw1QdrtzKFxISgpYtW8pYEenp6SgpKZGxR0hPT8eVV16Jt956C+Xl5bLs1fz8/HD77bdj27ZtmDZtmmJ/bom8RXZ2NgoLC2V8Xoo0PGazGceOHZMxkW6NGjVKRorSamDBWZs3b1b1AR8AhgwZIiPdOHbsmKqDCxo2bIgGDRrIuFZat26t2GSxujQ8UGFwQfv27V02rKF169bw9fWVsSLU3kKptoqKCrz22msYOXIkp7WeR0hICJ544gls2bIFkyZNUu33HZGnKSsrQ0ZGhozPyzU/KYScnBycPn1axkS6pPb5HYvFUqODdko4dOiQ6lvqhg4dKiPdcDgcql4C6coD967e1nWuuq7Q1PXvv5TIyEg0btxYxrXSsWNHlzVPl6L2FkqtJCUl4YorrsDjjz9e7bew3qRZs2aYM2cOfv31V8XO4RF5uuq+WFPku3t6errqb4+JaqtDhw6qTtHJzMzE8ePHZayq4uJiVR/wAaBXr16oV6+ejHVD7bfurjog76p/jlRWVobMzEwZ10hWVpaiW7dc2Tiq9cBptVoVv5RVTyorK/HJJ5+gV69e+Pjjj2GxWORHvJrRaER8fDw2bdqEhx56SNVJoUSeoLov1hRpeJQ+qErkSiNHjpSRonbs2KHqRZfn43Q6Vb+ANCQkRNXBEDXljg2PwWBQbIUnKyurzr9PS0tLFZ3UZjAYXDbxzlX/nEspKSmp9ahvd3by5Ek88cQT6N27N3755Rc2PkJwcDDeeecd/PLLL2jWrJksE9EFpKWlweFwyPhfFGl4vPGbObkvtc/v6OVm8q1bt6q6EmswGHR9jkftwQXt27eHyWSScY0EBgYqNvHpwIEDdR6sYbFYkJ6eLmOXclXjqNYKz/79++vcSLqz9PR03HrrrRg6dCgWL17s1V+L8xkxYgTWrFmj67vLiPTk6NGj1XqB4vKGx+Fw1HkbBJFaGjRogJ49e8pYMXo4v3PWnj17VL8zIyEhwWXjmF0tJydH1XNNMTExCAgIkHGNhIeHo0mTJjJ2CVet1Fd3u0FtuWJlJiIiwmVngS6FVzb83wpzUlISJk6ciISEBHz//fcoKyuTH/NazZs3x6JFi3DXXXfJEhEJubm51fr+4fKGx2KxIDc3V8ZEujRgwACXjQeujpycHN28ECgoKMDBgwdlrKjY2Fg0bdpUxrpQWVmJtLQ0GSvGFQfu27Vrp9ief1ed8arugdLaat26NYKCgmRcIy1btqzzP6O61N46qWdOpxPJycm4++670bt3b8yaNUvVlw56FhgYiNmzZ2Pq1Kl1Xgkm8mQWiwU5OTky/heXNzxVVVX8hkVuY8SIEaquOCQlJelmC4fD4cDWrVtlrKiQkBD06dNHxrrgcDhUPUzuim1UrryH5lxOp9NlW9HS09Nht9tl7DL16tWr85mHuLg4xRpHiSs855eZmYkXX3wRnTp1wv33349du3ZVa1++J/Px8cGzzz6LmTNncnQ10UVU56yoyxuegoICXjZGbsHf31/1MyXr16+XkaY2bdokI8Wp/TWvCbXfvtf1Mtb27dvLyCUKCwtdNkkwJycHRUVFMnaZgIAAxMbGyrhGlBr8IJnNZp5xvYSSkhJ8/fXX6N+/PxISEvD5558jPz9f1fN1emIwGDBlyhQ2PUQXceTIERn9i8sbnpMnT8qISJc6dOiA5s2by1gxVqtVd5fw7dq1S/UXFAMGDIC/v7+MdSE1NVXVt8p1aVhcOaFMOnbsWLX2RFeH2Wx2WfN0IXVdKVOr4UlNTVV0tcvT7NixAw8//DC6dOmCiRMn4pdfflG0edaze+65B6+99pqqOxKI3EV1jtK4vOFR87ZyoroYOnSoqm/M8vPzVT0jUh3Z2dk4duyYjBXVunVrtGzZUsa6cOzYMVUvSKzLhDGTyVTnlY0LSUtLq/OEtrPsdrviv+/rslLm4+Pjsrt8LmXXrl1eu1JRF2azGYsXL8Ytt9yC7t2746677sJvv/2m6B1PevTII4/gvvvukzGR16tO7+Hyhqc6XRaR1gwGA0aMGCFjRSUmJqKqqkrGmrLb7di+fbuMFeXv748BAwbIWBeKi4tx+PBhGSumbdu28PPzk3G1NGnSBBERETJ2iX379smoTlw1AOFC2rdvD6Oxdj/OIiIi0KhRIxkrgud36i4vLw8//PADrr/+enTt2hUPPfQQ1q1bB6vVKj/qcYxGI6ZPn6763XFEeled3WW1+wlxEd663EzupWHDhujRo4eMFaWX+3cktS8gxZnx1HrkcDiQkpIiY8UEBgYiJiZGxtVSl9WhS3H1KGlXjbi+kOjoaISFhcm4WqKjo1GvXj0Zu9zZiWTkGk6nE7m5ufjiiy9w1VVXoWPHjnj66aexY8cOl61O6pG/vz8++eQTtGrVSpaIvFZ1dma4vOEpLi6WEZHu9O3bt9YPSLXhdDqxceNGGevC1q1bVT9X0K9fPwQHB8tYF9R8C28wGGrduNT277sUJS4LTU9PV3R1Mzw8vNaT2uLi4mq9OlQTeXl5OHr0qIzJBRwOB7Kzs/Hhhx8iPj4ePXv2xNSpU5GSklKtCwndTZMmTfDBBx/U+R4vIk9Rne2tLv8u76qDrkRKGjVqlIwUVVRUhL1798pYFzIyMlQfJR8dHY22bdvKWBf27NmjagNY2wPzSjU8RUVF1doeUBM5OTnV+oFUW3U5z6TU4AcpLS0NFRUVMiYFZGRkYMaMGejfvz/i4+Px9ttv48CBA6r+uVbasGHDMHnyZBkTeaXq/HxxecPDb+ikdwEBAYiPj5exorZv367bPeZanOMxGAy6HU+dlZWl6kp1bR+4lWp4jh496vL//tLSUsUv3K3tnUR1nfBWXSkpKapOAKT/+96WnJyMV199FX379sWwYcPw4YcfIjMz0+2HRxgMBrz44ou13hJL5Emq03u4vOFRctsCkSvExsaidevWMlaUXreznaXVOR49jlgtLCys1kx/V6nNaOqAgADFfg+npaUp8jDo6nNBUm1Wyvz9/VWb0JaYmCgjUlFVVRW2bduGp59+GpdddhmGDBmCd999V/HzZUoKDw/Hq6++qsvvo0Rqqs7WVZc3PJ58WJA8w4gRI1T/AaHXgQVnaXEBab9+/RAYGChjzTmdTlUHFzRv3hz169eX8UW1bNlSsTNQSk1U27Nnj4xcKi4ursYT70JDQ9G0aVMZu5zdblfs60o1V15ejm3btuHll19G79690bdvX/z3v//F8ePHFWn2lXTDDTfg8ssvlzGRV6lO7+HyhodL9qR3V1xxhYwUVVRU5PIxv662d+9emM1mGSuqXr166NWrl4x1YdeuXTJSTGBgIFq0aCHji4qNjVXkDimn06nYG+/9+/cr+jAZHR2NkJAQGV9Uy5YtERoaKmOXy8vLQ05OjoxJB2w2G5KTk/H888+jQ4cOuOWWW7B27dpqvTHWA4PBgJdffln1l3hEelKd3sPlDQ+RnoWFhaF3794yVtTOnTt1P8yjsrJS1elkZw0dOlRGuqDmeQsfH58ab8eqzTa46qiqqsLBgwdl7BLp6enVegtXW6GhoTUe1avU11HKyMhw+bkocj2LxYJFixbhqquuwvDhw/Hzzz+7xTb9wYMHo2/fvjIm8hrVeZnGhoe8ypAhQ+Dv7y9jRW3evLlafxi15HQ6sXXrVhkrTq8NT3p6OsrLy2WsmJo+eNf2gP6lFBcX4/jx4zJ2iZycHJw+fVrGLlXTQQ61HRhRU8nJybr/HkD/n9PpxI4dO3Dbbbdh6NCh+O2333T96+fj44MHHnhAxkR0DjY85FXUHkcNNzi/c5YWgws6d+6MBg0ayFhzhYWFOHbsmIwVU5MHb4PBUOMGqboOHTqEyspKGbuE3W53+f0+Uk2/jmpNaEtKSpIRuQGn04mdO3fixhtvxA033IDDhw/Lj+jGqFGjarzCSeRN2PCQ1/D19cWwYcNkrKhTp04pfljbVZKTk1FaWipjRQUGBqJfv34y1pzagwtiY2Ph4+Mj4/MKCwtDdHS0jF1C6builD6437Fjx2qfZfDx8an13T01YbVa3eZ7AJ2f3W7H8uXL0b9/f8ydO1fRrZm1FRoainHjxsmYiM5gw0Neo3PnzmjSpImMFbVnzx7VhwHUVlFRkWIH1i/EYDAgISFBxrqg5uCCxo0bIzIyUsbnFR0drdhBe6VHRyv9+6t9+/YwmUwyPq/g4OAaD4uojaKiIhw9elTG5IbMZjMeeeQR3H777SgqKpJlzd144401nlRI5C3Y8JDXGDp0aLXforvKli1bVDv8Xlc2mw3btm2TseIGDx5c7YdUNe3evVtGigkNDa32qo2SE9rcfYUnOjq62iO+27Rpo8rDYVpaWrVuASf3sWjRIowaNUp3W9w6duyoyqolkTsyVFRUuPQk3sSJE7Fo0SIZE2nKYDBg5cqVGDRokCwpavr06ZpMP6ut/v374/HHH5exoioqKtC7d28cOnRIljQVERGBo0ePqtaM3X333fj+++9l/C8vvvgiXnrpJRnXmd1uR7t27XDixAlZcpkGDRogKytL0a/psGHDqnUe7fbbb8enn34qY5d7//338eyzz8qYPECrVq3w008/KTZEpDZefPFFzJo1S8ZEHi0gIOCSq65seMgrNGnSBLt27UJYWJgskQ5U92Ffbfv27UNMTIyMFfHee+/hhRdekPG/zJ8/H9ddd52M6ywvLw+tWrVSdBqVj48P9u7dq+hWsscee6xajcybb76pSnN/55134scff5QxeYjmzZtj+fLlaNeunSxpYs2aNRgzZozb7CwgcoXqNDzc0kZeoW/fvmx2dEyv46nV3NZWnclrSh60P3DggKLNDs6sIil9jqe6dxrVZKJbbVmtVlWHX5D6jh07huuvvx4nT56UJU307NkT9erVkzGR12PDQ15Bi3HUVH19+/ZFUFCQjDWnZsPTrl07BAQEyPgf6tevj6ZNm8rYJZQ+X4Mz54SUHozQpUsXGZ2XGiOpS0pKdLdVk1wvPT0d99xzDywWiyypLiwsTJVmnsjdsOEhjxcUFKT62R2qmRYtWqBNmzYy1pyaDU/jxo0vuQrZrFmzah/Kr6m0tDQZKULpwQjVGfEdHh6uWON4rn379qGqqkrG5IH+/PNPfPDBBzLWRO/evWVE5PXY8JDHi4uLQ8uWLWVMOuLj44P4+HgZa27Pnj2q3bkREhJyyYsD4+Liqn3PTE2pdVfMvn37ZORS1bmnqG3btpdsilyBF456l+nTpyu+glkd3bt3lxGR12PDQx5v+PDhik6FItdISEhQ7GG+tgoLC5GdnS1jxVzq/IlS06BsNhsyMjJkrIisrCxFL7itzjmnmlxQWhdqrhCS9srKyvDSSy9pPjCgU6dOqvz+JnInbHjIoxmNRgwfPlzGpEO9e/dGSEiIjDVlsVgU34J1rkvtva/OYIPayM7ORnFxsYwVUVpaqmgTaTAY0LFjRxn/w6UaS1dxp5H05Bp//PEH1q5dK2NVxcTEqLKCSaQX1WnwXd7wGI0u/0cS1VpkZCQuu+wyGZMONWrU6JIP/GpzOp2qTtnq0KHDBb9x+/v7X3LlorbS09NhtVplrIiqqiqkp6fL2KUutRJ2qYbIFU6fPq27iylJeTabDe+99x7sdrssqSY4OFiVM2pEelGd3uPSn6ghvlUgPYmPj9fl9C86vyFDhshIc7t27ZKRYtq2bQs/Pz8ZA2eGbzRv3lzGLqHGSOpzKX3O4WIrOCaTSbHG8VypqamaPvSSdjZs2KDqyvD5XOocG5EnqU7v4fKG50I/rIm0MHLkSBmRjg0ZMuSCKxxa2bt3r2qrH82aNbvgpLbWrVsr1ryr/XCm9ICEli1bXvAukoYNGyIyMlLGLrdz505Vm0jSj6qqKsyfP1/GqmLDQ96kOr2HyxuewMBAGRFpgud33M9ll12G0NBQGWsqLy8Pubm5MlaEj4/PBW9sv9iqRV0pveIipaenK7r6ERoaimbNmskYONMMKdU4nkvNlUHSn19//RUVFRUyVk1UVJSMiDxWdXoPQ0VFhUtfQb344ouYNWuWjIlU161bN2zdulXGpHNjx47FypUrZayppUuXYsSIETJWxOOPP45PPvlExnjrrbfw6KOPyrjOSkpK0KlTJ+Tn58uSYiIjI5GcnKzoSsvNN9+MxYsXyxiTJk3Cxx9/LGOXcjqd6NGjh2p3G9XWNddcgxEjRqi6EmUwGPDHH39g2bJlsuRRDAYDNmzYgF69esmSKqZPn47XXntNxkQeqVOnTkhMTJTxP7i84ZkxYwamTp0qYyLVPfvss3j11VdlTDo3e/ZsPPfcczLW1BtvvIEnn3xSxor45JNP8Pjjj8sYS5YsUWSLZlpaGvr06aPqBZkmkwmbN29G165dZcllXn/9dbz55psyxowZM/Dwww/L2KVyc3PRuXNnlJWVyZKuTJ06VZM/a2+88QamTZsmY4/z2muv4emnn5axKubMmYOnnnpKxkQeqW/fvlizZo2M/8HlW9rCw8NlRKSJUaNGyYjcgB7P8ai5Pel8E8YMBoNiI6kzMjJUbXYAwG63azapTamv47nS0tI03c5E+rB582ZVV8/OFRwcLCMij9WgQQMZ/YvLG57GjRvLiEh1jRo1UvTtMSknLi5OdyNV9+/fD4vFImNFxMXF/avhq1+/vmKHkLXadpWamiojl4qNjf3X5B5/f3+0bdv2H5kSkpOTNb98krS3e/duRc+qXYzezkISKalhw4Yy+heXNzw8KEd6MHDgQFUOJpPr+fv7Y8CAATLW1LFjx3Dq1CkZKyIyMvJfL45iY2Ordc9AbSg9Me1CDhw4ICOXatq0KerXr/+PLDIyslpvAuvqUnvJyTucPHkSeXl5MlZFdaZWEXmK6vQeLv8JKn9QE2lh1KhR/3pLTu5j6NChMtJUSUkJMjIyZKwIo9H4r4lsXbp0+cdfu4rD4VC88biQ9PR0RbfShYWF/WtVrFWrVggJCflH5mo2m02zJrKmtNpu5S3fm51OJw4ePChjInKx6uwKcXnDExkZecH7D4jUEBQUhMGDB8uY3MiAAQPg6+srY00lJyfLSDEdO3b8x1/HxcX9469dxWw2IycnR8aqyM7ORklJiYxdxmg0/uu8zvm2C7paXl6eZl/TmtJq253JZJKRxzp8+LCMiMjFWrZsKaN/cXnD4+fnV629dERK6dChQ7W6fdKv5s2bX/A+Gq3s3r1bRopRa4XnxIkTqm3Vk0pLS3HkyBEZu5T8unXq1Okff62EjIwMRRs5V1LrXJrkTdut1LrDS9Lq7BCRFuRq/vko0vA0b95cxkSqGT58+L8OK5N70eM5ntTUVNhsNhkr4twVHpPJhNjY2H/UXSUjI0PTB6N9+/bJyKXOXeExGAyKrZSdKzk5WbOtYjWl5JbCi6nOJYGeorCwUEaq4JRA8hZBQUEXvGj6XC5veAwGA9q0aSNjIlUYjUYMHz5cxuSGhgwZIiNNHT58GKWlpTJWRNu2beHv7w8AaNKkiWLj/vfu3SsjVSn9vx8bG4uAgAAAQEBAAFq3bi0/4nJJSUky0i2t7glS6vezHhUXF8tIFVr92hKprUmTJtV6ieLyhgcK7jcnupQmTZqge/fuMiY3dPnll+tqtGppaanid8ecFRoa+vdK+bnNj6spvcJyKfv27VN0NaRZs2Z//x4KCwtDkyZN5EdcymKxuM3AAgCabWdkw6O88vJyGRF5pNatW1drm6wiDY/cf06kln79+ik+hYnU0aRJk38dOteaWheQ+vn5/X2GqUOHDooctLdarao1cBeSnp6u6DbBwMDAv3cctG7dulpvAeuiqKgIR48elbFumc1mGamiOiNkPYXVapWRKrRqtIjUVt1hNIaKigqXv147evQounXrhsrKSlkiUtTcuXNx6623ylhxW7duxcKFC2XsEWJiYvDggw/KWBUvvfQSZs6cKWPN3HXXXZgzZ46MFfHcc89h9uzZeP/993HPPffIcp2ZzWbExcVp9tCLM+eTsrKyFL0b56GHHsIXX3yByZMn48MPP5Rll1q3bh2uuOIKGetW9+7dsWXLFhkrLicnB3FxcZqeH1PL6NGjNfnZ8NRTT6n2vYpIS5999hluu+02Gf+LIg1PeXk5evXqhaysLFkiUkxAQACSk5PRokULWVLc2YcqT9S0aVPs2rVLk3Hzq1atwrXXXqvZ+FxJzQfE77//HnfffTdWrVqlyACH1NRUXH755TJW3erVq9G/f38Zu8xHH32EJ598Eu+++67ijfvs2bPx3HPPyVi3oqOjkZ6eXq23o65UUlKCjh07oqCgQJY8zrhx4/D999/LWHF33HEHFixYIGMij2IwGLB58+ZqHWVQZEtbUFDQv+6RIFJax44dNZkQWFVVhU2bNsnYY+Tm5mq29emyyy7TpNG6kLS0NNVWrtu3b4+goCDFDtqnpaXJSBNKn3np3LnzeS9zVYJaWx5dxWw2a7L1KSAgQPHzVHoRGRkpI1UcP35cRkQeJzIyslp38ECphgcAevXqJSMiRY0aNUr1N5U4c4FiRkaGjD2Gw+HAhg0bZKyK+vXro2fPnjLWTEVFhWrNX/PmzREbG4v69evLkkukpqbKSBP79++XkUudndSm9L1OVqsVKSkpMtY1i8WC/Px8GSvO19fXa4YbaXUv4YkTJ2RE5HHatm2LsLAwGZ+XYg1P7969NXn4JO81cuRIGali/fr1Hr8Xff369YpO07oYvY2n3rlzp4wUER4ejgcffFCxg/ZKNxrVpXTj1ahRI7Rr107xy4iLi4tx+PBhGeuaxWLRbCVAXgrrqVq1aiUjxVksFjY85BUuu+wyGI3Va2Wq96la6Ny5s662opBna9CgAS677DIZq2LNmjUy8jg7d+7UZOsLACQkJOjq5Ylab/F9fX0VG8DhcDhw4MABGWsiPT1d0RcGBoMBs2bNgslkkiWX2rt3r2YXedaW0+nUrEnzll0gWmzvP378uGpbb4m0VJPzn4o1PI0aNeIFpKSaIUOGwMfHR8aKs9lsWL9+vYw9Tl5enmYPyN26dUNERISMNeNu5zTOp6ysDEeOHJGxJoqKihRfZajJD8XaUmvlz9W0OsvVuXPnam9FcVdBQUGIjY2VseIOHTqkm0EvREoJDg5Gjx49ZHxBijU8RqMRAwcOlDGRIkaNGiUjVezbtw8nT56UsUfSqrHz9fXFoEGDZKyZtLQ0VFRUyNitHDp0CBaLRcaasNvtmj10u5K7NsJabW2MiopC586dZexRunfvjuDgYBkrTqtfUyI1xcTE1GhQlWIND3S4FYU8k5+fHxISEmSsCm/YznbWunXrNDvHM3ToUBlpprS0FIcOHZKxW9m7d6+MNON0OrFv3z4Zux13bXgOHDigyVY8o9HoVncW1caIESM0eQZSa9stkZbi4+NrtFVZ0YanT58+CA0NlTGRS/Xo0QONGzeWsSq8qeFJTExEeXm5jFUxePBgTR4czsdqtSp+0F5pemsw9NSA1capU6fc9t65vLw85OTkyFgVV155Jfz9/WXsEUwmE6666ioZK87pdCI5OVnGRB7FYDDUeKCRog1PRESEZgfJyXsMHTq0Rl2+q5SWlmL79u0y9lhmsxm7d++WsSpatWql2H00teHuDxR6azDcfQtOamoqbDabjN1CRUWF4nchXUiHDh2qdWGgO+rRo4cqdz9JBQUFyMzMlDGRRwkNDa3x2UxFGx6ceYNDpBSDwaDZOOqdO3fCbDbL2KOtW7dORqrw8/PT1ZlArRo/V3A6nZoNoLiQzMxMlJaWytht7N69W7Ptnq6wZcsWGanCaDRi0qRJulm9daXbbrsNvr6+MlZcSkoKysrKZEzkUfr06VPjYUZseMitNW3aFJ06dZKxKtatW+d1k3C0anigs3M86enpbvtQUVBQoLtBGyUlJYpPalNSUlKSjNzK5s2bFR0NfjHXX3+9ZluSlRIdHY0bb7xRxqrYuHGj1/1cIu9Tm+2iijc8bdq08ZoLxkh9AwcO1OScmNPp9KrzO2ft3LkTJSUlMlZFv379FLuEs6ZOnTqFY8eOydgt6GlC21lVVVVuO6nNE85M7N27F7m5uTJWRUhICB599FEZu7WHH34Y9evXl7HiHA4H/vrrLxkTeRSj0YgxY8bI+JIUb3gA4Nprr5URkUtoNeUnLy9Pdwe/1VBWVobExEQZq6Jx48Zo3769jDVRVVXltudO9u3bp8s3wHrbZlddubm5mh36d5WysjLNtrUBwN13341WrVrJ2C116NABd955p4xVkZ2d7ZU/l8i7XHbZZYiOjpbxJanW8BiNqvxPkRcJCQmp8aE1V0lMTERxcbGMPZ7T6cTGjRtlrApfX19dneNx1zHEem3UtDo4X1eecC8TACxfvlxGqgkODsYbb7zh9s8JPj4+eOuttzTZdYAzU0Pd+SwcUXWMHz9eRtWiyneXuLg4dO3aVcZEddKhQ4dadfmusHbtWrc+pFwXPMfzf9z1rgu9vgE+cOCALleeLiU5Odkt/72l1atXa7ZdFQDGjh1b6wcZvbj77rsxYsQIGavC6XRiyZIlMibyKP7+/hg7dqyMq0WVhsfX1xfXX3+9jInqZPjw4Zq8EbTZbNiwYYOMvcaePXtQUFAgY1X06NFDk73x53PgwAG3G1xgsViQkZEhY104fvw4Tp8+LWPdc/eBBWfl5+dj7dq1MlaNyWTCu+++i7Zt28qSW+jVqxemTZum2cS548ePa7b6TqSWAQMG1PpFt2pPi+PGjUNwcLCMiWrFZDJh1KhRMlZFdnY20tPTZew1iouLNdvO1bBhQ90MQTlx4gTy8vJkrGsnT55EUVGRjHWhqKjI7c7C2Gw2t7+E9lzz58+XkaoaNmyI+fPnIzIyUpZ0rV27dliwYAGCgoJkSTWLFi3SdIWOSA0TJ06s9Yvu2v1dtdCyZUsMGjRIxkS10rBhQ80urNu2bZtH7NmvLafTqdkKV21uV1aKxWLR7fawC8nMzNTtqpTdbne7Fwl5eXluPU5b+v333zVv4rt06YLvv/8eYWFhsqRLMTExWLhwIZo2bSpLqrFYLPj2229lTORRGjZsWKdBVao1PEajEbfddptmy73kWQYPHgx/f38Zq4JjP7W96yE+Ph4mk0nGmnC3C0gPHDig67Nn7ja4ID093aPeqldVVeniwXnw4MFYuHAhGjZsKEu60rlzZyxbtgyxsbGypKrNmzd71Eoj0fmMGTOmTqu/qjU8ADBixIha770jOtfIkSNlpIrKykps3rxZxl5n3759yM/Pl7EqunXrhvDwcBlrwt3uX9m7d6+MdEWvE+QuJDk5WdcNZG18+eWXKC8vl7HqBg4ciJUrV+p24NFVV12F3377DW3atJEl1b3//vse9/uQ6Fy+vr64/fbbZVwjqjY8oaGhuPnmm2VMVCMmkwnDhw+XsSqOHDmCw4cPy9jrmM1mzVY3QkJCcPnll8tYE/v27UNVVZWMdUvvd92kp6fr7lLUi/GUgQXnyszMxLJly2Ssifbt22PVqlV46KGH4OPjI8uaCAoKwltvvYUff/wRUVFRsqy6Xbt24Y8//pAxkUfp3r07evXqJeMaUbXhAYBJkybp5rZ0ck89e/bU7AfN2rVrNdvKpTdaTnTSy3jqo0eP6nYIgFRaWqr7Zj07O9tt7hGxWCxutwWvOpxOJ2bNmoXKykpZ0kRoaCjeeecdrFu3DoMGDdJsO6uPjw+uueYabN++HY8++ih8fX3lR1TndDrx5ptvwm63yxKRxzAYDJgyZUqdX3qo3vDExMTgqquukjFRtWk1nQ1nLnaj/7Np0ybYbDYZqyIhIaHWk1pcyWq16n6b2FmFhYWajROvrpKSEmRlZclYl06dOoWjR4/K2COkpqZi8eLFMtZUz549sXLlSixevBhXXHGFai9OAwMDMWbMGKxcuRL/+9//dLGF7az169dj5cqVMibyKE2aNMG1114r4xrT5InhoYce4vACqjWtzu9YrVZs2rRJxl5r3759KCwslLEqOnTogCZNmshYE1qN6K6pgwcP6uat/cW4y+S7tLQ03U68qyun04m33noLxcXFsqQpg8GA4cOH45dffsHWrVvxn//8B71793Z58+Pj44MuXbrghRdewObNm/HTTz+hf//+8mOaqqysxNSpU2G1WmWJyKNMnjwZISEhMq4xTRqePn36oG/fvjImuqRmzZqhU6dOMlZFamqq7t+Qq6msrAyJiYkyVoXRaER8fLyMNeEugwvcZSCAu6yYuUujW1tpaWmYO3eujHXBYDAgNjYWzzzzDNasWYPk5GTMnz8fjz76KIYNG4bWrVvXqAkKCwtD165dMXHiRLz//vvYsWMHNm7ciJdffhnt27eXH9eFefPmYfv27TIm8ijBwcG45557ZFwrhoqKCk1Geyxbtgw33nijjIkuauLEifjiiy9krIqZM2fipZdekrFXe/jhhzFjxgwZq+K7775z2TfCumjbtq1bjIR94IEH8NVXX8lYd0aNGoVFixbpfhfAHXfcgQULFsjYo4SFhWHLli2IiYmRJd1yOp2wWCyorKxEYWEhCgsLYTabUVFRAYvFAqfTCV9fXwQGBiI8PByNGjVCZGQk/P3963xGQC1ZWVkYOHCgZivsRGqZMmUK/vvf/8q4VjRreCwWCwYPHqzZpCdyT19//TUmTJggY1VceeWVmh7U16Nu3bph8+bNmpynOXbsGDp27KjZOaKzTCYTcnJydH1RosPhwLBhw7B161ZZ0p1WrVohNTVV1w+fVqsVvXv3Rlpamix5nJEjR2LRokWa/Bmnf7NarRg3bhxWrVolS0QeJSgoCDt27EDr1q1lqVY0+w7m5+eHJ554Qvdv8Ug/QkJCMGDAABmrwmw2e/wWltrQ8hxPkyZNdLHdxG63636Fp7y83G2GARw7dgxms1nGumI2m5GZmSljj/THH3/gyy+/lDFpZPbs2Wx2yCtMmDDBpavLmjU8OHNrql4vFSP96dy5s2YH1RMTEz3qRnVXsVqtml3E6uPjg0GDBslYE3pvhgsKCpCXlydjXbLb7cjIyJCxruzdu9et7guqq5deegkpKSkyJpWtWrUKb7zxhoyJPE5wcDAeeeQRly6KaNrwBAYG4qmnnuJSOVXLiBEjNLuDYd26dbx/5wLWr18vI9UMGTJERprQ+9bctLQ0t/r9q/cVs507d8rIo5nNZtxzzz04deqULJFK0tPTcc8997jVRcdEtTVhwgTExcXJuE407zSuvvpqdO/eXcZE/2AymTBs2DAZq8LpdPLszkWsW7dORqrp3bs3QkNDZaw6vU9qc7cLMg8cOCAjXdH7ip4SUlJS8NBDD3nVypZenDhxAjfddBNyc3NlicjjhIaGKnLkRfOGx9/fHy+99JJmb+7JPTRt2hRdunSRsSqOHz+u+wcwLWVkZCAnJ0fGqoiKikLnzp1lrLojR47o+u23u/3+1fsKjzc2PACwaNEiPP/887Db7bJECsnPz8f48ePdZqw8UV1NnjxZkQt+NW94cGYM6eDBg2VM9LdBgwYhKChIxqrg+Z2Ls1gs2LJli4xVYTKZdPG9o6KiAunp6TLWBafT6TZ325yVlpam24fqwsJCHDlyRMZe46OPPsL06dPhdGoy4NWr5OXlYdy4cV7bYJP3iYqKwhNPPCFjl9BFw2M0GvHGG2/oegwpaWvUqFEyUs1ff/0lIxK0PMczePBgly9915TdbtftoW6r1YpDhw7JWNeKiopw4sQJGetCamqq5qPQtTZ9+nTMmDHDrc6FuZujR49izJgxml3uTKSFJ598ElFRUTJ2CV00PADQo0cP3HzzzTImQmBgoGbTuCwWi2ZTyNzJpk2bNHsj361bN0RGRspYdXodXHD06FEUFxfLWNdsNptu77jZtWuX169uOBwOvPbaa3jllVe8vvlTwu7du3HFFVfofmsnkSvFxsZiypQpMnYZ3TQ8ADB16lSEh4fLmLxcly5dNBtHfezYMd2PyNWDrKwsHD16VMaqCA8PR48ePWSsuuTkZF0+CLvj3n+n06nbf29vm9B2IQ6HA7NmzcIDDzyAiooKWaZacDqdWLBgAUaNGuU19zwRnfXGG28gICBAxi6jq4anWbNmePbZZ2VMXu7KK6+UkWo2bdrEMaDVUF5ejm3btslYNVpN8DtXVlYWioqKZKy5ffv2ycgt6PHckcPh0P1EPjU5nU58++23uPLKKzV74eEpSkpK8Oijj2LSpElutyJLVFdjxozBVVddJWOX0lXDAwD33HMPunXrJmPyYiNHjpSRatasWSMjugAtz/EMGjRI8zOAZrMZWVlZMtacHhuH6tBjo5abm4vjx4/L2Ott27YNgwcPxu+//67LVU6927x5MxISEjB37lx+/cjrhIWF4bXXXlN8WrPuGp6goCBMnz4dfn5+skReqFGjRpo1wJWVldi6dauM6QK2bt2q2R0dHTt2RMOGDWWsKrvdrss993rdGnYpmZmZKCsrk7GmDhw4gPLychnTmWZwwoQJePLJJ3W50qlHBQUFeOqppzB69GhdNvhEanj00UfRoUMHGbuc7hoeAEhISMCtt94qY/JCw4YNU7zrv5CDBw969fjZmsrMzMSxY8dkrIqAgAD069dPxqrT2/jY0tJSt/09XFJSotn9TheSkpLCN/AXYbVa8fHHHyM+Ph7Lli3j1+oCLBYL5s6di379+mHOnDmorKyUHyHyCl26dMFDDz0kY0XosuExGAx47bXX0KxZM1kiL3PFFVfISDXr1q3jD+wa0HpFbOjQoTJSnd4eiLOystz2QHllZaXu7jbiiODqOXjwIG666SaMHTsWe/bs0dWfCS1ZrVYsWLAAffv2xaOPPors7Gz5ESKv4evri5kzZyI0NFSWFKHLhgcAIiMjMXPmTBiNuv1XJIUFBgYiPj5exqrh+Z2aW7dunYxUk5CQoPn3i8OHD+vqwPGBAwfcemywnkZTW61W7NmzR8Z0AQ6HA3/88Qf69u2Lu+66C3v27PHae3vMZjM+//xz9O7dG3fccQf279/PJpC83pQpU1S9ckTbp4NLuPbaa3H99dfLmLxEz5490aBBAxmroqqqChs3bpQxXcK2bds0254RExODmJgYGasqPz9fs21953PgwAEZuRU9nYnKy8vjwIJasNvt+PHHHzFgwADcdNNNWLt2rWZn/dRks9mQkpKCZ555Bt26dcPDDz+sqwaeSEtt27bF1KlTZawoXTc8ADBjxgxER0fLmLzA8OHDNTu/s2vXLpjNZhnTJRw+fFizbRoGg0HzbW0Oh0NXqwB6ahhq48CBA7pZFUhPT0dJSYmMqZosFguWLVuG0aNHY9CgQXj//feRlZXlUSsdTqcTGRkZ+OCDDzBs2DAMHDgQH3zwAU6ePCk/SuS1/Pz8MGfOHISEhMiSogwVFRW6/26zbNky3HLLLbBarbJEHqxx48YIDg6WsSpKSkqQl5cnY6qGpk2bIjAwUMaqMJvNKCgokLGqIiMjUb9+fRmrzmAwICcnx23P8ACAj48PWrRoAYPBIEuqKy0t5YOriwUHB6N3794YO3YsRo4cqfkKbW1UVlZi165dWL16NX7//Xfs37/frf/MESnt8ccfx7Rp01T/vu4WDY/T6cTjjz+OTz/9VJaIiIjIzfn5+SE2NhYJCQmIj49H3759ERkZqfm5vHM5HA6UlJQgOTkZ27Ztw+bNm7F9+3acPn1aNyuRRHrWq1cvrFixQvXVHbhLw4Mzb9yHDx+OlJQUWSIiIiIPYjQa0aZNG3Tr1g2dO3dGp06d0LZtWzRp0gT+/v7w9/d3+Rtip9MJm82GqqoqlJWVITs7G4cOHcKBAwewf/9+7Nu3D4cPH3brQSBEWgkLC8Pq1avRqVMnWVKF2zQ8ODPydfjw4dxHTURE5IXCwsIQFRWFRo0aoUmTJmjYsCEiIiLQoEEDhIaGIjg4GAEBAfDz84PJZILBYIDT6YTD4YDVaoXFYkFlZSXKy8tRUlKCgoICmM1mFBYWIj8/HydPnkRBQQFOnTrFbfRELmI0GvHhhx/izjvvlCXVuFXDAwBffPGFapcUERERERFR7U2cOBGfffaZZoOo4I4Nj8PhwD333IP58+fLEhERERER6USHDh2wZs0ahIWFyZKq3K7hwZlJTCNGjHD7katERERERJ6oXr16WLVqFbp06SJLqtPP+JMaCAsLwzfffIPIyEhZIiIiIiIiDfn4+ODDDz/URbMDd214cGaJ7KOPPoK/v78sERERERGRBgwGAx599FGMHz9eljTjtg0PAFx99dV49tlnXT6akoiIiIiIau7KK6/Eyy+/rKt7tNzyDM+5bDYb7r33Xvzwww+yREREREREKunSpQt+//133R07cfuGBwDKy8tx5ZVXYvv27bJEREREREQKi4yMxLp169CmTRtZ0px+1prqICgoCAsWLEC7du1kiYiIiIiIFBQaGor//e9/umx24CkNDwA0atQI3333HRo2bChLRERERESkAD8/P8yZMwcDBgyQJd3wmIYHALp27Yp58+ZpfrkREREREZGnM5lMeO2113D99dfLkq54VMMDAIMHD8Znn30GPz8/WSIiIiIiIhcwGAx44okn8PDDD+t+YrLHNTwAcM011+C9997T/RefiIiIiMgdTZ48Ga+++qquxk9fiP7/DWvprrvuwvTp02EymWSJiIiIiIhqafz48XjvvffcotmBJzc8APDwww/jxRdfZNNDREREROQCV199NT777DP4+PjIkm55dMNjNBrxzDPP4Omnn3abDpSIiIiISI+uuuoqfP755wgKCpIlXfP4LsBkMuGll17CU089xTM9RERERES1MGrUKHz11VeoV6+eLOmexzc8ONP0vPrqq3jmmWfY9BARERER1cCoUaPw/fffu2WzA29peHBmdN7UqVPxwgsv8EwPEREREVE1jB49Gj/88AOCg4NlyW14TcODM03PCy+8gFdffdWtDloREREREant+uuvx7x58xAYGChLbsWrGh6cGWTwxBNP4O233+blpEREREREgsFgwN133425c+e63YCC8/G6hgdnmp77778fn332GQICAmSZiIiIiMgrGQwGPPnkk3jvvfc85jnZUFFR4ZShN/nrr78wceJEmM1mWSIiIiIi8hpGoxFvvvkmHnnkEY8a9OX1DQ8AJCUlYcKECcjJyZElIiIiIiKPFxISgg8++AA33XSTLLk9r9zSJvXq1Qt//PEHunfvLktERERERB6tYcOGWLBggUc2O2DD8/+1bt0ay5Ytw6hRo2SJiIiIiMgjdejQAcuXL8eQIUNkyWOw4TlHgwYN8L///Q/333+/LBEREREReZTBgwdjxYoV6Ny5syx5FDY8gr+/P2bOnOlRkymIiIiIiM4yGo249957sXTpUjRs2FCWPQ6HFlzEmjVrcPfdd+P48eOyRERERETkdkJCQjBt2jTcfffdMBq9Y+2DDc8lZGZmYvLkydiyZYssERERERG5jZYtW2Lu3LkYNGiQLHk072jr6iAmJgbLli3DlClTPGoeORERERF5j2HDhuGvv/7yumYHbHiqJzg4GLNmzcLnn3+OevXqyTIRERERkS75+PjgmWeewc8//4ymTZvKslfglrYa2r9/P+68804kJyfLEhERERGRbjRp0gQff/yx11+7whWeGurQoQNWr16N+++/H76+vrJMRERERKQpg8GAK664Ahs2bPD6Zgdc4ambpUuX4rHHHsOJEydkiYiIiIhIdcHBwXjppZfw4IMP8uX8GWx46ig7OxtPPPEEfv31Vzid/FISERERkTa6d++OOXPmoGfPnrLk1bilrY6io6Mxf/58zJkzB2FhYbJMRERERKQoX19fPPnkk/jzzz/Z7JwHV3hcKCsrCw8//DBWr17N1R4iIiIiUlzHjh3x0UcfoU+fPrJEZ3CFx4VatWqFpUuX4sMPP0RUVJQsExERERG5RGBgIJ588kls2LCBzc4lcIVHIUePHsWLL76IRYsWwW63yzIRERERUY0ZDAb06dMH7777Lnr16iXLdB5seBRkt9vx22+/4bnnnsPhw4dlmYiIiIio2iIiIvDCCy9g8uTJCAgIkGW6ADY8KiguLsY777yDDz/8EJWVlbJMRERERHRBBoMBN9xwA6ZNm4bo6GhZpktgw6OiAwcO4Pnnn8cff/wBh8Mhy0REREREfzMYDOjatSvefvttxMfHw2AwyI9QNbDhUZnT6cTy5cvx6quvYu/evbJMRERERITGjRvjueeew5133gk/Pz9Zphpgw6OR8vJyfPnll5g1axZOnDghy0RERETkhUJDQ3HXXXfhySef5NRfF2HDo7G8vDx88MEH+PTTT1FSUiLLREREROQFfH19cf311+O5555DbGysLFMdsOHRiSNHjuCdd97BvHnzYLVaZZmIiIiIPNQVV1yBqVOnomvXrjAaeU2mq7Hh0ZmMjAxMnz4dixYt4kQ3IiIiIg9lMpkwaNAgvPzyy+jXrx8HEiiIDY9O7du3D++++y6WLFmC8vJyWSYiIiIiN+Tj44P4+Hg8/fTTGDx4MBsdFbDh0bn9+/dj9uzZ+OWXX3jGh4iIiMhN+fn5YdiwYXjssccwcOBAbl1TERseN+B0OpGZmYlPP/0U3377LYqKiuRHiIiIiEiHAgICcN111+Ghhx5C9+7d2ehogA2PmyksLMTXX3+NTz75BNnZ2bJMRERERDoQFhaG22+/Hffddx9iYmK4dU1DbHjclMViwZIlS/DRRx8hMTERNptNfoSIiIiIVGQ0GtGuXTvcfffduO222xAWFiY/Qhpgw+PmnE4ndu7cic8//xxLlizhdjciIiIilQUFBWHo0KGYPHkyhg8fDh8fH/kR0hAbHg9y8uRJLFq0CN999x12794Nu90uP0JERERELmAwGNCmTRtMmDABN910E9q2bSs/QjrBhscDWa1WJCcn47vvvsOSJUuQm5srP0JEREREtVCvXj2MGjUKt956KwYOHIigoCD5EdIZNjwerqSkBH/99Rd++OEHrFy5kpeZEhEREdWQyWTCgAEDMGHCBFx99dVo0KABhxC4ETY8XsRsNmPJkiX4+eefsWnTJpSVlcmPEBEREdGZe3O6du2K66+/HuPHj0d0dLT8CLkJNjxe6uTJk/jjjz+wdOlSbNq0icMOiIiIyOuFhISgW7duuPbaa3HllVeiTZs2XMnxAGx4CAUFBdi8eTN+++03rF+/HkeOHIHD4ZAfIyIiIvI4jRo1Qt++fXHVVVchISEBLVq0kB8hN8eGh/6hrKwMaWlpWLVqFf766y/s3LkTJSUl8mNEREREbsnPzw+dOnXCkCFDMGLECPTo0YP35Xg4Njx0QQ6HA2azGTt27MC6deuwbt06pKSkwGq1yo8SERER6ZLBYEBsbCzi4+MxePBg9O/fH1FRUbwrx4uw4aEaKS4uxo4dO7BlyxZs27YNu3fvhtlsZhNEREREmjOZTAgJCUH79u3Rp08f9O/fH/369UPDhg3lR8mLsOGhOqmqqkJ6ejpSUlKwa9cu7N69GwcPHkRRUREsFov8OBEREZFL+Pj4oF69emjZsiW6du2Knj17onv37ujQoQNCQ0Plx8mLseEhlyspKUFOTg7S09Oxf/9+7Nu3DxkZGTh+/DhOnTrF1SAiIiKqNqPRiPr166Nx48Zo06YN2rdvj06dOqF9+/Zo3rw5wsPDOUmNLooND6nC4XCgpKQERUVFyMrKwpEjR3Dw4EFkZ2fj6NGjyMvLQ35+PkpKSjghjoiIyMuEhIQgMjISDRo0QIsWLRAdHY3WrVsjJiYGrVq1QlRUFEJDQ+Hr6yv/VqJLYsNDmnM4HLBarbBarSgpKfm7+Tn7f6dOnYLZbEZxcTGKiopQXFyM8vJyVFRUoKqqClVVVbBarbDZbHA4HHA6nXA6+duaiIhIaQaD4e//8/HxgY+PD/z9/eHv74/AwEAEBQUhJCQE4eHhCAsLQ7169RAREYHIyEg0bNgQUVFRiIqKQnh4OPz8/ODr6wuTyST/Z4jqhA0PERERERF5LKMMiIiIiIiIPAUbHiIiIiIi8lhseIiIiIiIyGOx4SEiIiIiIo/FhoeIiIiIiDwWGx4iIiIiIvJY/w888FGIPyVkLwAAAABJRU5ErkJggg==;rounded=0;" vertex="1" parent="1">
          <mxGeometry x="10" y="111.5" width="47.32" height="27" as="geometry" />
        </mxCell>
        <mxCell id="QjeNA2YwnsSd0T1r7HZM-6" value="Region" style="text;html=1;align=center;verticalAlign=middle;whiteSpace=wrap;rounded=0;" vertex="1" parent="1">
          <mxGeometry x="50" y="110" width="60" height="30" as="geometry" />
        </mxCell>
        <mxCell id="QjeNA2YwnsSd0T1r7HZM-9" value="" style="sketch=0;points=[[0,0,0],[0.25,0,0],[0.5,0,0],[0.75,0,0],[1,0,0],[0,1,0],[0.25,1,0],[0.5,1,0],[0.75,1,0],[1,1,0],[0,0.25,0],[0,0.5,0],[0,0.75,0],[1,0.25,0],[1,0.5,0],[1,0.75,0]];points=[[0,0,0],[0.25,0,0],[0.5,0,0],[0.75,0,0],[1,0,0],[0,1,0],[0.25,1,0],[0.5,1,0],[0.75,1,0],[1,1,0],[0,0.25,0],[0,0.5,0],[0,0.75,0],[1,0.25,0],[1,0.5,0],[1,0.75,0]];outlineConnect=0;fontColor=#232F3E;fillColor=#E7157B;strokeColor=#ffffff;dashed=0;verticalLabelPosition=bottom;verticalAlign=top;align=center;html=1;fontSize=12;fontStyle=0;aspect=fixed;shape=mxgraph.aws4.resourceIcon;resIcon=mxgraph.aws4.cloudtrail;rounded=0;" vertex="1" parent="1">
          <mxGeometry x="240" y="296" width="90" height="90" as="geometry" />
        </mxCell>
        <mxCell id="QjeNA2YwnsSd0T1r7HZM-10" value="" style="sketch=0;points=[[0,0,0],[0.25,0,0],[0.5,0,0],[0.75,0,0],[1,0,0],[0,1,0],[0.25,1,0],[0.5,1,0],[0.75,1,0],[1,1,0],[0,0.25,0],[0,0.5,0],[0,0.75,0],[1,0.25,0],[1,0.5,0],[1,0.75,0]];points=[[0,0,0],[0.25,0,0],[0.5,0,0],[0.75,0,0],[1,0,0],[0,1,0],[0.25,1,0],[0.5,1,0],[0.75,1,0],[1,1,0],[0,0.25,0],[0,0.5,0],[0,0.75,0],[1,0.25,0],[1,0.5,0],[1,0.75,0]];outlineConnect=0;fontColor=#232F3E;fillColor=#E7157B;strokeColor=#ffffff;dashed=0;verticalLabelPosition=bottom;verticalAlign=top;align=center;html=1;fontSize=12;fontStyle=0;aspect=fixed;shape=mxgraph.aws4.resourceIcon;resIcon=mxgraph.aws4.cloudwatch_2;rounded=0;" vertex="1" parent="1">
          <mxGeometry x="432" y="290" width="98.34" height="97" as="geometry" />
        </mxCell>
        <mxCell id="QjeNA2YwnsSd0T1r7HZM-28" value="" style="edgeStyle=orthogonalEdgeStyle;rounded=0;orthogonalLoop=1;jettySize=auto;html=1;exitX=0.5;exitY=1;exitDx=0;exitDy=0;exitPerimeter=0;" edge="1" parent="1" source="QjeNA2YwnsSd0T1r7HZM-11" target="QjeNA2YwnsSd0T1r7HZM-9">
          <mxGeometry relative="1" as="geometry">
            <mxPoint x="290" y="200" as="sourcePoint" />
            <Array as="points">
              <mxPoint x="285" y="190" />
            </Array>
          </mxGeometry>
        </mxCell>
        <mxCell id="QjeNA2YwnsSd0T1r7HZM-11" value="" style="sketch=0;points=[[0,0,0],[0.25,0,0],[0.5,0,0],[0.75,0,0],[1,0,0],[0,1,0],[0.25,1,0],[0.5,1,0],[0.75,1,0],[1,1,0],[0,0.25,0],[0,0.5,0],[0,0.75,0],[1,0.25,0],[1,0.5,0],[1,0.75,0]];outlineConnect=0;fontColor=#232F3E;fillColor=#7AA116;strokeColor=#ffffff;dashed=0;verticalLabelPosition=bottom;verticalAlign=top;align=center;html=1;fontSize=12;fontStyle=0;aspect=fixed;shape=mxgraph.aws4.resourceIcon;resIcon=mxgraph.aws4.s3;rounded=0;" vertex="1" parent="1">
          <mxGeometry x="245" y="168" width="80" height="80" as="geometry" />
        </mxCell>
        <mxCell id="QjeNA2YwnsSd0T1r7HZM-12" value="" style="sketch=0;points=[[0,0,0],[0.25,0,0],[0.5,0,0],[0.75,0,0],[1,0,0],[0,1,0],[0.25,1,0],[0.5,1,0],[0.75,1,0],[1,1,0],[0,0.25,0],[0,0.5,0],[0,0.75,0],[1,0.25,0],[1,0.5,0],[1,0.75,0]];outlineConnect=0;fontColor=#232F3E;fillColor=#E7157B;strokeColor=#ffffff;dashed=0;verticalLabelPosition=bottom;verticalAlign=top;align=center;html=1;fontSize=12;fontStyle=0;aspect=fixed;shape=mxgraph.aws4.resourceIcon;resIcon=mxgraph.aws4.sns;rounded=0;" vertex="1" parent="1">
          <mxGeometry x="628" y="289.25" width="95.5" height="95.5" as="geometry" />
        </mxCell>
        <mxCell id="QjeNA2YwnsSd0T1r7HZM-31" value="" style="edgeStyle=orthogonalEdgeStyle;rounded=0;orthogonalLoop=1;jettySize=auto;html=1;" edge="1" parent="1" source="QjeNA2YwnsSd0T1r7HZM-13" target="QjeNA2YwnsSd0T1r7HZM-25">
          <mxGeometry relative="1" as="geometry">
            <Array as="points">
              <mxPoint x="100" y="420" />
              <mxPoint x="100" y="420" />
            </Array>
          </mxGeometry>
        </mxCell>
        <mxCell id="QjeNA2YwnsSd0T1r7HZM-13" value="" style="shape=image;aspect=fixed;image=data:image/png,iVBORw0KGgoAAAANSUhEUgAAALgAAACKCAYAAAAZgYBhAAAAAXNSR0IArs4c6QAAAARnQU1BAACxjwv8YQUAAAAJcEhZcwAAFiUAABYlAUlSJPAAABD6SURBVHhe7Z15mBN1mse/SXe60/dBN303CIiDgDd4oozOoKKt4zDO4MXTiiCHiMyiDCzKzDw7D8t4ALsgIwweoy7u6IPHKAgO47UoAu6zs+pIt4hI091uHzR9pc+k9o+kktRbVakclaRSeT/P8z5f3vdbpNPpX968qVRVLC6XSwAAQQAsFngJN6eq5bMmj4pEJxcAuBecv28RFzjDmBGL0+kS6DMtMVX+DA7sxy93E7wvzalq+cmt3MEZU2MV/yGQZR5uTlWE1lnNp2LQupovzQWdfXfOHZwxNVb/ZwRrfFUMWncr7VB0e+pHL3dH8L40p6rlR6bcwRlT453BI0XQeJpQ36g5q7mUOzhjangGN4z6ZtLg/Pjl7gjel+ZUtfzIlDs4Y2p4Bic5VRFaZ00M5Q7OmJqQP8mkKkLrrOZTMWjdrb6ZWnl76kcvdwfP4EwSoNsMnuiInUAN6scrpypC66xu5Q7OmBqewVl1UjoT+0LZj03OHZwxNTyDexCf+WpQP145VRFaZ3Urd3DG1OjWwcVnjBrUj1dOVYTWWc2h3MEZU6NbB2fii9ix1KB+vHKqIrSul3IHZ0xN0B2cPuMoofrxyqmK0DqrOZQ7OGNqgu7gjLERO5Ya1I9XTlWE1vVS7uCMqUmaDk47BoX68cqpitA6a3DKHZwxNUnTwRljI3ZcvXPu4Iyp4Q7O6ALtoBTqxyrnDs6YGu7gMYJ2GAr1jZpTFaF1oyh38BgxUH8UQw0n4ezshPN0J4SBAaTk5cGan4fUwkLYz50Ma4ad/jcmQniBRxHHp4fRveev6HnvAww1NlFbRta0y5B91TTk1sxESkE+tZkw4AUeBQa/OYbv1/wOjoOHqRUU1qwsjJh/NwrvngOLPZ3aTAjwAteZ//vNWnS89DIth0XKiEKUProSOdfPgOD5tjiRaOVUI/XjrbzAdWK4tQ0Ncxdh4EgdtSKm4I7ZGLlqOSw2G7UYDXiB60D/51+iYf79cLafopYitooypJaUwOXog7O9HcOtbXQTGfZJZ6Nyy0akloykFhMAXuARMnj8BL679Q44O7uo5SX9zLHIuf5aZF99Fexn/4DaAIDejz5G97730P32Hjg7O6kNAEgbXY1Rr7yElLxcajEq8AKPAFdvL7696ecYajhJLQBAanERih96EHk/qaGWKs7OLrQ/vR2n/vgctQAAGReej1E7lL1oIs60alA/XjlVXuAR0Lj0IXTv3kvLAIDMS6aicssGWLOyqBUU/Z9/iYa5i+A8fZpayPvpzSj719/SMqMAf5IZJr2ffKq6uHNvuA7Vf9oW9uIGAPvkiRj96ouwVZRRC50730D/l1/RMqMAL/AwaVn7BC0BADIuOA/l69fRcljYqqtQ9dxWpOTlUQutj2+kJUYBXuBh4DhwSHF3YOrIYlQ+tYGWIyJtVDWqnt1Cy+jd/wkchz6j5aghaAyy1DdKzgs8DDpe/jMtAQCKly9FSmEBLUeMfdJE5MycQcvo3PkmLUWNQG8woeAbJecFHipOF3rf+5BWkT5+HPJuuoGWdaNo0X20hJ5978tbFyOBF3iI9P3P3+Hq66dlFNx5G2CN3sOZPn4c7OdMktScp0/Dcfi/JTVGSvT+IiZFbe7NvmY6LelO9g+voiX0/+8XtMT4wQs8RAa+/oaWkH7WeKQWF9Gy7mRPu4yWgvqYP5nhBR4iw83f0xJspSW0FBVso6poiRe4BrzAQ8TZ00tLSCkeQUtRISUvD9bMTEnN2dYuyRkpvMBDRWGvhSUtjZaihuxAqyi+sTUD/OiEiFXhDBtnDMeE4ZZWSW7NDv9wgGSAF3iIpBYX0xKGYzQmODu7IDidklrqSPn9YXzwAg8R2+hqWsLAkToIQ0O0rDv9n39JS0g/60xaYvzgBR4iGZMn0hJcff1wfHKQlnWnZ9/7tAT7ZOmHP4wUXuAhknnxFFoCAHS9tZuWdKf73X2S3FZRBvuEsyQ1Rgov8BBJKSxAxgXn0TI6X/8L+r+QjxB60fHCDtkbzNya6B37YhZ4gYdB/uxbaQkA8P0//4aWdMHV3YO2zU/TMgruuo2WGAIv8DDI+8mNsFVW0DL6v6pD84pHaDlimpavhPNUh6SWP/tnMTk8INHhBR4mJY+upCUAQOdrb6J96zO0HDat6zehhxyea83MRNEDiyQ1RpmkOul4uLUNQycaMPjdCQy3tsNWUYa0UdVIP3NcWJdIa3xgObrfeZeWAQCF99Zi5MPLaDkkWn6/XvHs+pLVK1Aw53ZaZhRIigXevXsv2p7ahoG6emp5ybn2RyhasgDp44Pfr+zs6sbxm2/FUGMztQAAWVdegdJHfwVbtfwgqUAMfncCrY9tQPde6V4TAMiZOQMVGx6jZUYFUy9wl8OB5lVr0L1L+ex3JYqWLEDRkoW0rEr/V3U4MXuO4kkQIvmzf4bcmpnInHIhtST0frgfHTv+rLi/GwAyp16Eym2b+TLLIWDaBe7s7EJD7XzJ5RVSCvKRNe1ypHkOOxWcLvT87QPZCcQ51/0YFf/2uKQWiN4P96PhXu2ZOCU3BxlTLoT97AmwT5wAweWEs7UdQ03N6Hprl+orATwnVFRu4TPpQ8W0C7xx8TJ0v/s3b160eD6Kli6WbCPiOPQZOp5/STISFP9yCUYsuFeyXSAcBw+jcfEvVS+7Fgn5P5+F0t+u5iMHw8Dicikc/+klgGVgBurq8W2Nb1915ZaNQZ1S1rPvfZxcuBQAYLGnY/zBj0J689n78QE01MpPDo4Ea2Ymyp9YG9T9Z+RY3YtYLRKT7r2+zl14b23QiyP7mukYMe9uAIDQP4CeD/+LbqKIs7ML36/5F90XNzzvI04uXIqG2vswUH+U2owGVsACfcI4DDX7ZtnCu++SeFrkzbrZ++/Bo/LzLymdr7+FYzNqcHrHK9TSld6PD+DbG2ehZW3w7w0Yk87gTQ8+jK5de5BaXIRx++W72rQ4Mv5cwPPkGLlyObUBAK6+PjSveER1PzjFVlGO7OlXwlZVgZS8XKTk5cGSno6hxiYMNTZisOEkBo8eC6pL2ydPRMXGxxQ/TWWkaMzg0SK6P7LxwYfQvWsvbOVlGPv+O9TWpG7CBRCcThTW3omRqx6iNoaamnFy/hIM1H9NLQlpY8cg75YaZE+/Eunjx1FbEWf7KXTt2oOOF3Zg8Ph31PZizc5C+eNrkX21/FISjA+NGTxakbj0/+MIjs+6PeDizr/1Fox+9SWM2f0aRsy/J+jFDc/38hTcdRvG7H0TVc/+AdnTp9FNAACunl6cXPAAut4O/QmcTOg4g0czjIOtrBSFc26Xnd0OALbKCoze+R8o/d2vZVehCoesyy9F5dZNqHrmD7BVVVIbANC0bAU6X32dlhkPng4OhQ4bz5yGcUgpyMeIhfNwxu7XkHnxRd56bs1MnPGXV2CfJD/jJ1KyrrgUZ7z+n8i68nJqAQCaV62B40D0zyhKRDwdHAodM555JBEbbGWlqH5hO3JvuA4la1ai/Im1EV3wXgtrTjaq/viU6kFWTf+0Es4O+bdBJDtxmsGjGbGlfP06FNwxm5ajRsnqFShasoCWMdzahuaHV9Ny0hOnvSj64mw/heZfPQJXXx8AYODoN3Ce6oA1JxuFtYH2gyv/6o5DnwEuAallJUjzHAlozcpC4T1z6KZxo3nVGsXZu/yJtcitmUnLSYtnP7iF/LGjnVO0/MC0bdyMts1baVl3CubcjpLVK2g5LghDQzh2/S0YOtEgqacWF2HMX9/mIw49xGkGp6HlBw5X/6DnNqJLMB/CxAqLzYYKhe8CGm5tQ/vT22k5aTHFJ5kt657Eqe3PAwB+UP93akdM/XmXwuVwIPOSqaj+0zZqx5XWDZvR/pT01cuakYEzD34AS3rwB4qZlQTZDx5MiNC6HuEP9dQiNhQtmif7FjZXXx+6dgd3CIHZIfvBI1UxaD1cP5RcRM0XIAwNon3LVhy79ibUnTMFJ+68B70f7VfdPtTbl9eijyUtDfl3/IKW0bnzDVpKSqwWi8X9lcdBqJtA6t+9lDRUP5RcRM23oHnlGrSu34TBb49D6B+A4+BhNMxdiN6PPlbcPtTbDz8iI/8Xs2gJjgMH+eL4AKyCICDYkHcpI4UIrbtjoL4eXW++DQDImXENKjY8hsxL3Jdh63ztDcm2dRPOx5Hx53jD5XBo3n5kERm2slLFq23xp5veDh6dkHeqaIYIrbtj4Ij74KjU0hJU/PuTyJl5LSqf3gRYLOj/4h8qt6WE/LZjH3KUTurgb2DzdHAAni4dqYrhzt34q3/H0i+3WP3/6HLfnXrU5fL6FosFFqvV8wGRb/vMi6cgc+pF3hBxP2n9b1f5/kQ/5GRdOpWW0McL3N3B4fnj0Zk7dBWD1tV8Xy7vUMHngmRPp9wHgIwLzwcsFgy3tKJx6XJ07dqDhnmLITidnkXs277qua2ofvEZb4hHDrqftP63q3x/4hH2SfKjFwe+/gZC/wAtJxWeGZx2YBpafuQh71Khhgitu8NWWe690lT3O++i6cGH4fj0EKwZdhQvu1+2vfJtq9++ESJtzBnkvgJDjY20lFSQvShqoeXHNmj3skgupyD3xSicW4uKzethsdkAAPaJEzB658uwVVZKtmuovQ8n7pzrDfFNptLPNlLYKsv9Hgc37mutyLdVDvOhOIPHO6dKfTc+lY4oct9fc358NVIK8gEA2df8EGljxa4neMPx6SE4Dh72hoj7Z/vfnrHy1MJCz799DJ0UO7j/9jRE33wozuDxzqlq+f5vMpV8j0NUxL/ujsBvMuXbGyXPvXEmipYslETa2DEK29PQ8tXC+KgcTZhYhHosytErfoThllYUPbAIRfdrX8vEyMeiMIEJcgY3fojQulJUbnoSo17cjvyf3iTz5F2KdirqcQQX8SEhZ3AlFaF1qbrDft65yJh6EVLLy2W+fCalr2z+dbq9UXIakfp6RHywCOIKSmBafr8e7dueBQCMelH/Y6Eb5i2Gq68fWZddjOrnfSNK4j9yRkW/B1ZlBjd6LqVl3Xqc2i7/JgS94Rk88VCZwY2eSyM1P5f+XlEhtbBA9rNDCflcyqFPqGNxuVyCxWKBILiPzTCyun8Zed3V3YOWdU8GvNRZpKQUFWLk8mWwVZar3h8xp6rl66citK7mJ2oePKaYwc0I/1X0wRQzuLbPJCvcwU0A/wXVkewHT3QVVPabxzqnquVHqm4Ev0j0nIaWrx7cwZOQZPqLS/aiiLNstHOqWr58xqZ1Nd+oOUXLZ8KFOzgTkERfHVbxFxDXOWv0VFCZyY2W+6vvlUUPFYPWw/W1c+7gjG4YcSXFZQZXz713y/MMpEr9RM0pWj4TLtzBmbgRi5XHM3gMVVCZeY2WU9Xyw1U3/iqGfjl3cCYhCHeVGupoQnEWpXU1P145VZ/vfVgVt5P7iZpTtPz4wR2cMSXiqvZeMUdc56JB172aH/ucqpbPqpcKKjN5rHOqSr74isIdnDE1PIOHkVP1+d6HVXE7uW/UnKLlGxfu4IypMeAMTlXLZ9VLBTLTUqV+vHKqgXzu4IypMdUZPfFWQaWjGC2n6vPFUN5O7hs19wV3cMbU+M3gUoNCff1zaUHbV87FcvxyqpH6rMGqQF6RwHtRGLPDM7iOKih0kEB+7HMxQvN9Sn2j5r7gDs6YGtPP4Fq+/jlVLZ9VLxXIKxJ4BmfMjuYnmfKcaqQ+a6xUUOhwgfx45VS1fJ+K4atzB2dMjf83qBoaradhqH7oubQQri/W5dsr+7HPqWr5xlbu4IypicEMzmoUFchMS5X6xsvlM7ZUqc/7wRmT8/8x/T59mkmr8gAAAABJRU5ErkJggg==;rounded=0;" vertex="1" parent="1">
          <mxGeometry x="40.66" y="300" width="98.67" height="74" as="geometry" />
        </mxCell>
        <mxCell id="QjeNA2YwnsSd0T1r7HZM-14" value="RootAccountTrail" style="text;html=1;align=center;verticalAlign=middle;whiteSpace=wrap;rounded=0;" vertex="1" parent="1">
          <mxGeometry x="250.5" y="386" width="69" height="30" as="geometry" />
        </mxCell>
        <mxCell id="QjeNA2YwnsSd0T1r7HZM-15" value="RootAlertTopic_SNS" style="text;html=1;align=center;verticalAlign=middle;whiteSpace=wrap;rounded=0;" vertex="1" parent="1">
          <mxGeometry x="638" y="386" width="60" height="30" as="geometry" />
        </mxCell>
        <mxCell id="QjeNA2YwnsSd0T1r7HZM-16" value="LogsRootActivities_ Bucket" style="text;html=1;align=center;verticalAlign=middle;whiteSpace=wrap;rounded=0;" vertex="1" parent="1">
          <mxGeometry x="160" y="203" width="60" height="30" as="geometry" />
        </mxCell>
        <mxCell id="QjeNA2YwnsSd0T1r7HZM-17" value="RootEventRule_CloudWatch" style="text;html=1;align=center;verticalAlign=middle;whiteSpace=wrap;rounded=0;" vertex="1" parent="1">
          <mxGeometry x="449" y="386" width="60" height="30" as="geometry" />
        </mxCell>
        <mxCell id="QjeNA2YwnsSd0T1r7HZM-20" value="" style="edgeStyle=orthogonalEdgeStyle;html=1;endArrow=block;elbow=vertical;startArrow=none;endFill=1;strokeColor=#545B64;rounded=0;" edge="1" parent="1">
          <mxGeometry width="100" relative="1" as="geometry">
            <mxPoint x="140" y="336.5" as="sourcePoint" />
            <mxPoint x="240" y="336.5" as="targetPoint" />
          </mxGeometry>
        </mxCell>
        <mxCell id="QjeNA2YwnsSd0T1r7HZM-21" value="" style="edgeStyle=orthogonalEdgeStyle;html=1;endArrow=block;elbow=vertical;startArrow=none;endFill=1;strokeColor=#545B64;rounded=0;" edge="1" parent="1">
          <mxGeometry width="100" relative="1" as="geometry">
            <mxPoint x="331" y="334.5" as="sourcePoint" />
            <mxPoint x="431" y="334.5" as="targetPoint" />
          </mxGeometry>
        </mxCell>
        <mxCell id="QjeNA2YwnsSd0T1r7HZM-24" value="" style="edgeStyle=orthogonalEdgeStyle;html=1;endArrow=block;elbow=vertical;startArrow=none;endFill=1;strokeColor=#545B64;rounded=0;" edge="1" parent="1">
          <mxGeometry width="100" relative="1" as="geometry">
            <mxPoint x="528" y="336.5" as="sourcePoint" />
            <mxPoint x="628" y="336.5" as="targetPoint" />
          </mxGeometry>
        </mxCell>
        <mxCell id="QjeNA2YwnsSd0T1r7HZM-25" value="Perform Sensitive Activities such as delete MFA or check billing services" style="text;html=1;align=center;verticalAlign=middle;whiteSpace=wrap;rounded=0;" vertex="1" parent="1">
          <mxGeometry x="10" y="440" width="190" height="30" as="geometry" />
        </mxCell>
        <mxCell id="QjeNA2YwnsSd0T1r7HZM-33" value="&lt;b&gt;&lt;font style=&quot;font-size: 18px;&quot;&gt;Monitoring Root Activities Using CloudTrail. EventBridge Rule and SNS&lt;/font&gt;&lt;/b&gt;" style="text;html=1;align=center;verticalAlign=middle;whiteSpace=wrap;rounded=0;" vertex="1" parent="1">
          <mxGeometry x="230" y="120" width="420" height="30" as="geometry" />
        </mxCell>
      </root>
    </mxGraphModel>
  </diagram>
</mxfile>
